<svg version="1.1" id="Layer_1" xmlns="http://www.w3.org/2000/svg" xmlns:xlink="http://www.w3.org/1999/xlink" x="0px" y="0px"
	 width="100%" viewBox="0 0 500 500" enable-background="new 0 0 500 500" xml:space="preserve">
<path fill="#7FABC8" opacity="1.000000" stroke="none" 
	d="
M245.000000,501.000000 
	C164.666687,501.000000 84.833328,500.971893 5.000206,501.096069 
	C1.575961,501.101410 0.903036,500.423828 0.905301,497.000000 
	C1.013779,333.000092 1.013772,169.000122 0.905334,5.000239 
	C0.903070,1.576922 1.575817,0.903022 4.999884,0.905287 
	C168.999771,1.013774 332.999725,1.013761 496.999634,0.905353 
	C500.422668,0.903090 501.096985,1.575443 501.094727,4.999765 
	C500.986206,168.999649 500.986237,332.999603 501.094604,496.999512 
	C501.096893,500.422272 500.425446,501.101013 497.000275,501.096008 
	C413.166992,500.973206 329.333466,501.000000 245.000000,501.000000 
z"/>
<path fill="#172841" opacity="1.000000" stroke="none" 
	d="
M113.226456,193.902573 
	C111.879211,187.789871 113.039993,182.999252 118.577827,179.932022 
	C121.411766,178.362366 122.239670,175.896393 120.635284,173.198502 
	C117.770981,168.382019 119.032761,164.717957 123.112984,161.472031 
	C125.518250,159.558563 126.030273,156.824142 126.385834,153.928619 
	C127.980690,140.940872 134.289398,135.488922 147.261383,135.917999 
	C149.213028,135.982574 150.821686,135.181152 152.552536,134.698257 
	C164.885406,131.257553 175.214035,136.668228 179.279160,148.748291 
	C179.915985,150.640732 180.542313,152.623413 182.174240,153.908081 
	C186.183380,157.064117 187.322540,161.009918 185.959839,165.875534 
	C185.158768,168.735764 185.634186,171.479431 187.379440,173.959290 
	C189.630722,177.158157 190.029572,180.293808 187.255142,183.497086 
	C185.602753,185.404877 185.554169,187.339676 187.697464,189.120743 
	C190.373917,191.344864 190.251877,193.936157 188.206680,196.938660 
	C184.830276,199.062485 181.612320,197.818741 178.569305,197.018295 
	C176.753830,196.540756 175.156525,196.200027 173.024200,196.863159 
	C166.741684,195.741943 164.454605,191.536530 163.594879,185.733215 
	C163.621552,184.280975 163.967087,183.312424 164.596588,182.047119 
	C167.038589,178.366730 169.149475,174.951828 172.188339,172.115158 
	C174.273560,170.168701 174.848969,167.511154 171.088318,165.698349 
	C170.529800,165.567947 170.302872,165.530228 169.733185,165.447159 
	C163.110596,164.362961 158.388565,161.472641 155.698837,155.299515 
	C153.845062,151.044876 152.117493,150.909515 148.443878,153.640976 
	C147.646576,154.233795 146.959839,155.052368 146.065308,155.426559 
	C138.538956,158.574921 137.408585,164.635315 138.551132,172.117981 
	C138.655731,178.596725 140.663132,184.285782 142.395538,190.438812 
	C142.358826,191.394608 142.245285,191.925156 141.844772,192.796036 
	C140.303574,194.578735 138.391541,195.037064 136.411072,196.173386 
	C132.483215,198.142410 128.803711,199.545334 124.839699,200.192413 
	C122.998604,200.492950 121.234520,200.797272 119.324150,199.239151 
	C118.538353,198.657013 118.064293,198.347244 117.304779,197.995239 
	C114.575394,197.925934 114.072067,195.954590 113.226456,193.902573 
z"/>
<path fill="#474A82" opacity="1.000000" stroke="none" 
	d="
M144.203568,290.323822 
	C142.040726,289.912384 140.239044,289.793610 137.994843,289.780884 
	C139.556152,283.518890 139.324280,283.284149 132.438583,284.541168 
	C130.308197,284.930115 128.217880,285.478241 126.116508,285.988770 
	C124.156830,286.464905 122.047638,286.974304 120.416924,285.416687 
	C118.642227,283.721527 120.741837,282.082764 120.969254,280.203522 
	C117.304520,280.152008 114.243492,283.551971 110.221336,281.596893 
	C109.103020,278.101196 105.918060,280.071014 103.962914,278.861572 
	C102.549126,277.987030 99.554268,280.115875 99.840065,275.918091 
	C99.895256,275.107483 96.236099,274.315491 96.679779,271.432709 
	C96.775856,270.808502 94.392525,270.190399 95.630875,268.806183 
	C96.454468,267.885590 97.822510,268.432709 98.966553,268.521606 
	C110.492569,269.417694 122.019112,270.307037 133.546066,271.190887 
	C134.041336,271.228882 134.542130,271.195221 135.495605,271.150574 
	C143.255417,268.748169 150.816452,269.990814 157.473358,272.211823 
	C165.357574,274.842316 172.727264,279.512390 178.607452,286.444702 
	C181.086334,288.356384 183.367584,289.919342 185.819717,291.769714 
	C186.118561,292.211487 186.246490,292.365784 186.188736,292.756531 
	C185.241974,293.049622 184.480911,293.106293 183.341675,293.088654 
	C182.250488,293.513428 181.497177,293.816895 180.254883,293.285828 
	C176.115555,292.724976 172.337021,292.376007 168.124435,292.024780 
	C166.956772,292.992065 165.936539,293.797272 164.788589,293.686462 
	C157.995132,293.030640 150.956345,293.914734 144.203568,290.323822 
z"/>
<path fill="#152640" opacity="1.000000" stroke="none" 
	d="
M143.842224,290.487366 
	C151.513260,290.693542 159.184082,291.355957 167.272659,292.020447 
	C167.927902,304.511017 168.126709,317.000488 168.442566,329.486969 
	C168.492783,331.472107 167.813843,332.174408 165.909775,332.163666 
	C159.244049,332.126129 152.575195,332.045990 145.913071,332.208679 
	C142.442398,332.293457 142.778000,330.075653 142.835159,327.904816 
	C143.159592,315.584106 143.504257,303.263947 143.842224,290.487366 
z"/>
<path fill="#182941" opacity="1.000000" stroke="none" 
	d="
M167.563843,268.787445 
	C167.320694,269.902710 167.237976,270.594635 167.070557,271.625183 
	C163.095963,274.064026 161.430313,270.934723 159.999069,268.549866 
	C157.479126,264.350952 154.171555,261.430420 149.184387,259.859680 
	C145.961243,255.001633 150.426407,252.586670 151.925613,249.550186 
	C151.400421,250.949905 150.001968,252.033112 149.021835,253.416733 
	C146.257858,257.318634 145.530640,257.188904 143.463684,252.364944 
	C141.271103,243.411545 142.306427,234.468048 140.373016,225.450211 
	C140.382233,224.755157 140.392548,224.477448 140.383301,223.783234 
	C140.222061,221.992325 139.693115,220.611496 140.701111,218.932159 
	C142.550415,217.685028 144.178741,218.001556 145.764450,218.520035 
	C152.317535,220.662811 158.753235,220.413116 165.112320,217.739227 
	C166.495575,217.157623 167.953522,216.849091 169.830719,217.520538 
	C171.956802,219.852692 170.745270,222.136734 170.536316,224.801880 
	C170.507065,225.532654 170.500565,225.826675 170.488159,226.564880 
	C168.416458,239.521027 169.513794,252.224518 168.125320,265.228638 
	C167.982330,266.576324 167.985718,267.486511 167.563843,268.787445 
z"/>
<path fill="#293B4E" opacity="1.000000" stroke="none" 
	d="
M245.828125,246.232101 
	C250.125977,244.127380 252.421249,240.176193 255.718231,237.366364 
	C268.101868,226.812485 289.502869,232.635605 293.502625,247.468124 
	C294.358887,250.643631 294.088287,252.205093 290.295349,251.984192 
	C285.532501,251.706802 280.857941,252.908997 277.615509,247.086792 
	C275.567139,243.408661 270.456604,244.008148 266.609406,245.670105 
	C262.023743,247.651077 259.977234,253.807220 261.047241,261.047089 
	C261.862549,266.563629 265.091980,269.951569 270.302094,270.704803 
	C273.224274,271.127289 275.963013,270.506439 278.388763,268.862549 
	C279.329071,268.225311 280.227081,267.196899 279.858856,265.927612 
	C279.490143,264.656799 278.200806,265.245850 277.298187,265.078705 
	C275.421692,264.731171 272.678986,266.149628 271.800507,264.074249 
	C270.581085,261.193451 271.081909,257.837585 271.557159,254.723587 
	C271.826324,252.959930 273.593506,253.315430 274.860229,253.305634 
	C280.192047,253.264404 285.526428,253.380356 290.855621,253.255936 
	C293.429047,253.195847 294.426636,254.151001 294.395599,256.732147 
	C294.305389,264.229248 294.297241,271.729126 294.407837,279.225739 
	C294.443420,281.635406 293.536499,282.516418 291.196960,282.390747 
	C284.054291,282.006989 276.943542,282.526184 269.810577,282.959198 
	C263.955322,283.314636 258.651123,281.149078 254.537979,276.792480 
	C252.723251,274.870361 251.649902,274.296906 249.720184,276.885162 
	C247.083664,280.421417 243.793411,281.053253 240.469589,276.843628 
	C240.157501,276.333069 240.044464,276.109192 240.233261,275.675964 
	C242.840530,274.673859 246.605972,277.272949 247.325165,272.268005 
	C248.359207,270.225891 247.801285,268.606628 246.906281,266.698792 
	C246.523560,265.742249 246.233826,265.113739 245.812592,264.151123 
	C245.653656,263.574799 245.615784,263.337036 245.556717,262.737915 
	C245.371002,259.976685 245.825226,257.535889 244.934875,254.835999 
	C244.706177,254.034790 244.642487,253.568039 244.630676,252.754272 
	C244.707825,250.907791 245.811508,249.699310 245.799896,247.900070 
	C245.671082,247.237885 245.646393,246.857239 245.828125,246.232101 
z"/>
<path fill="#80A5C4" opacity="1.000000" stroke="none" 
	d="
M169.152191,225.277756 
	C169.191559,222.940506 169.515106,220.748337 169.909119,218.149597 
	C168.880188,216.843033 168.256805,215.601074 168.452972,214.268982 
	C169.330612,208.309296 169.154495,202.113174 172.576996,196.352905 
	C173.799377,194.110031 174.773987,192.353195 177.341507,194.023788 
	C180.354828,195.984375 184.009552,195.923721 187.626648,197.208038 
	C188.004364,198.468399 187.469040,199.364075 186.601898,200.277466 
	C184.106857,202.905670 184.468307,205.603271 186.738571,208.235580 
	C187.929031,209.615891 189.036285,211.067642 190.204926,212.467255 
	C190.627182,212.972961 191.577103,213.760162 191.513351,213.846161 
	C188.110504,218.437866 192.453598,222.921158 191.628616,227.405884 
	C191.410156,228.593506 190.743683,229.867722 192.039108,230.461838 
	C194.248169,231.475052 196.616638,231.323090 198.699097,229.972778 
	C200.122665,229.049698 199.387741,227.916382 198.522720,227.066925 
	C196.965500,225.537720 197.288086,223.917603 197.748840,222.020096 
	C198.721848,218.013062 200.229721,214.148834 200.177505,209.860825 
	C200.140045,206.785019 202.332336,205.163315 205.869553,205.108307 
	C206.559921,205.482376 206.844543,205.846725 207.316925,206.503784 
	C209.579025,208.326355 208.054031,210.167984 207.791183,211.780853 
	C207.024902,216.482849 205.772324,221.113068 205.154816,225.829620 
	C204.595749,230.099686 204.688507,234.276047 208.085297,237.863235 
	C210.246124,240.145203 211.018723,243.352097 210.849365,247.038330 
	C208.270569,247.533936 207.405853,245.551834 206.697342,243.762482 
	C203.966888,236.866577 199.568634,232.877380 191.637924,234.467041 
	C190.819916,234.631027 190.002319,234.333298 188.943008,233.704498 
	C186.949341,231.668610 187.188889,229.309006 186.687134,226.837875 
	C186.343246,225.734116 185.853470,225.365448 184.680267,225.659485 
	C183.658661,225.667709 183.054520,225.400208 182.316864,224.654114 
	C181.395538,222.826187 181.449173,221.293381 182.337799,219.575378 
	C182.474686,219.374863 182.704376,219.100464 182.598206,219.193115 
	C182.235611,219.435501 182.005493,219.618530 181.604080,220.033264 
	C181.264984,220.355377 181.123428,220.479095 180.747498,220.757965 
	C180.193375,221.092026 179.866165,221.255936 179.297089,221.526398 
	C178.907806,221.725815 178.752106,221.802048 178.364105,221.987473 
	C177.825867,222.238373 177.518250,222.376328 176.991028,222.634766 
	C176.627853,222.843826 176.482224,222.927811 176.115662,223.139877 
	C175.742081,223.348053 175.589432,223.428131 175.219879,223.660828 
	C174.854980,223.918594 174.706970,224.023743 174.326859,224.286575 
	C173.931320,224.545853 173.767868,224.647415 173.343140,224.890381 
	C172.894730,225.110031 172.707581,225.188309 172.220322,225.337936 
	C171.092773,225.505493 170.266281,225.776474 169.152191,225.277756 
z"/>
<path fill="#1C2F43" opacity="1.000000" stroke="none" 
	d="
M361.260620,282.368591 
	C356.617462,274.843506 352.219208,267.455017 347.864105,260.138977 
	C345.829193,260.655426 346.313934,262.040100 346.295502,263.073334 
	C346.233185,266.570679 346.285797,270.069977 346.289093,273.568542 
	C346.297546,282.514374 344.239502,284.071136 335.250763,282.332275 
	C333.101837,281.916565 333.125671,280.662506 333.125671,279.121948 
	C333.125488,264.793732 333.153656,250.465347 333.086761,236.137436 
	C333.075745,233.780655 334.059570,233.324722 336.271851,232.864166 
	C344.865692,231.075104 349.069183,235.754364 352.146301,243.022034 
	C356.651001,244.787964 357.352600,249.044662 359.035126,251.717346 
	C358.729340,245.614090 358.312256,238.874023 361.337769,232.195877 
	C362.140625,231.778336 362.647644,231.659592 363.582703,231.616531 
	C364.835052,231.651398 365.611786,231.904922 366.671326,232.587158 
	C367.453278,232.860016 367.892548,232.893875 368.659180,232.875488 
	C369.408813,232.563278 369.867035,232.453949 370.684875,232.660522 
	C372.044983,233.233444 373.674377,232.406708 374.088226,234.634445 
	C375.101105,241.181656 375.579407,247.399139 375.629730,254.078125 
	C375.634186,254.791534 375.645477,255.076675 375.701630,255.787231 
	C378.101501,261.437225 374.322479,266.199463 374.392181,271.638336 
	C374.121185,275.033966 374.069885,278.059631 373.987915,281.537964 
	C370.990387,284.577667 367.375977,285.129578 363.335327,285.091125 
	C362.762634,284.403412 362.487091,283.900238 362.002258,283.191803 
	C361.697144,282.826080 361.601318,282.665619 361.260620,282.368591 
z"/>
<path fill="#1C2F43" opacity="1.000000" stroke="none" 
	d="
M328.324554,282.284912 
	C318.901825,282.289490 309.910919,282.194550 300.924011,282.342194 
	C298.012878,282.389984 296.846985,281.720520 296.888062,278.496399 
	C297.064087,264.681702 297.061310,250.862259 296.889893,237.047455 
	C296.848297,233.696075 297.993591,232.839569 301.170166,232.907288 
	C309.822601,233.091736 318.485413,233.114792 327.136078,232.891205 
	C330.424561,232.806213 331.422302,233.828430 331.344421,237.070984 
	C331.099609,247.268219 332.296082,245.042603 323.249359,245.282501 
	C320.255249,245.361908 317.256775,245.295029 314.260529,245.269730 
	C312.028870,245.250870 309.938904,245.044205 309.986450,248.448853 
	C310.036438,252.031097 312.449646,251.322617 314.477600,251.360596 
	C317.972137,251.426041 321.480865,251.548172 324.961365,251.314529 
	C328.325531,251.088699 329.205353,252.477600 329.099518,255.657303 
	C328.770630,265.539124 330.206848,263.652954 320.922424,263.859161 
	C318.426605,263.914581 315.921631,263.985474 313.433441,263.837708 
	C310.873474,263.685608 309.944672,264.598053 309.967133,267.251709 
	C309.989868,269.931946 311.349091,270.180573 313.422607,270.152710 
	C318.249359,270.087830 323.081635,270.248138 327.903534,270.081268 
	C330.555634,269.989471 331.485321,270.988251 331.299042,273.553619 
	C331.142700,275.706299 331.216187,277.879913 331.269623,280.042267 
	C331.314148,281.843048 330.317719,282.345886 328.324554,282.284912 
z"/>
<path fill="#80A3BD" opacity="1.000000" stroke="none" 
	d="
M374.442505,254.890656 
	C374.314209,248.375015 374.178711,242.150558 374.103577,235.463257 
	C376.505280,235.674774 375.684662,237.440994 375.685303,239.056885 
	C375.689636,250.249100 383.463501,254.586258 393.495270,248.931641 
	C395.578522,247.757355 397.604919,246.852493 400.402405,246.939240 
	C400.794952,246.922623 401.228180,247.070312 401.265930,247.289307 
	C401.303711,247.508301 401.071625,247.857147 400.981445,248.029953 
	C400.891235,248.202759 400.512787,248.171417 400.344910,248.258942 
	C400.177002,248.346466 400.552917,248.335449 400.694153,248.223755 
	C400.835388,248.112045 401.079956,247.861481 401.259399,247.565994 
	C401.438873,247.270508 401.112274,247.153824 401.028748,247.001862 
	C402.972443,242.224442 405.343475,237.911987 411.017914,236.316238 
	C410.965210,230.198715 411.837341,228.870850 416.755920,228.902313 
	C418.395325,229.917053 420.382446,228.806747 421.619629,230.856598 
	C422.424164,233.506363 421.283875,235.404495 420.210388,237.704239 
	C419.988983,238.041489 419.990601,237.991745 420.014740,237.985687 
	C419.611786,238.399445 419.178925,238.812912 418.472900,239.369293 
	C417.781158,241.092178 418.649414,243.231659 415.907410,243.932251 
	C415.130096,244.089905 414.754059,244.293564 414.192841,244.805786 
	C413.965942,245.037369 413.972015,244.973068 414.004211,244.970642 
	C413.543762,245.575928 413.178986,246.304459 412.195251,246.851166 
	C411.961060,247.032745 411.965454,246.970840 411.995758,246.964203 
	C411.581696,247.403244 411.510101,248.006088 411.171631,248.810272 
	C410.997070,249.050507 410.991028,248.991272 411.020630,248.994354 
	C410.590393,249.417770 409.987213,249.486572 409.196747,249.846863 
	C408.967010,250.034225 408.975800,249.970047 409.008118,249.972168 
	C408.798737,250.203949 408.560425,250.437057 408.155029,250.856598 
	C407.984070,251.039093 407.981659,250.981094 408.010620,250.982895 
	C407.793396,251.206497 407.555267,251.436661 407.156891,251.857880 
	C406.988556,252.040573 406.986877,251.985321 407.014160,251.989609 
	C406.335358,252.791870 405.362427,253.170746 404.209564,253.839294 
	C403.969513,254.034561 403.977753,253.971985 404.009003,253.976395 
	C403.004364,255.056229 401.903076,256.044464 400.235535,256.826721 
	C399.447784,257.470734 398.811096,257.492981 397.750549,257.819336 
	C397.361786,257.966034 397.394318,257.798981 397.686951,257.578247 
	C398.510620,257.491394 399.079834,257.499573 399.867249,257.116913 
	C400.294250,256.838470 400.474182,256.739655 400.838013,256.887878 
	C400.951111,258.471039 400.899414,260.248077 399.460724,260.452637 
	C393.600586,261.285919 388.729614,266.174103 382.106018,264.182434 
	C378.442871,263.080963 375.526917,264.400269 375.960541,269.161438 
	C376.050842,270.152649 375.850952,271.143250 374.514832,271.868652 
	C372.843231,266.986328 376.489166,261.922638 374.072144,256.501648 
	C373.484253,255.521011 375.898254,256.067932 374.442505,254.890656 
z"/>
<path fill="#F5F7F9" opacity="1.000000" stroke="none" 
	d="
M109.779251,281.608826 
	C113.717880,281.095795 116.863235,279.003357 120.351044,277.959076 
	C121.801964,277.524719 123.525818,275.732269 124.730026,277.795807 
	C125.825592,279.673157 123.702911,280.679199 122.639557,281.829376 
	C121.874817,282.656555 120.898193,283.287842 119.380920,284.524017 
	C124.563599,285.890991 127.950218,282.974792 131.762802,282.826385 
	C133.571014,282.756012 135.377151,282.294830 137.155945,281.887299 
	C139.659424,281.313721 141.657639,282.415985 142.548538,284.419708 
	C143.669174,286.940094 140.626495,286.874207 139.507523,288.030060 
	C139.050964,288.501648 138.518692,288.899933 137.786591,289.609253 
	C133.459305,291.406708 129.426102,292.783447 126.847542,296.883575 
	C123.362251,302.425537 118.393448,300.253876 113.320862,298.893921 
	C110.166809,301.148926 107.986862,304.941040 103.294510,302.051544 
	C103.436722,297.649536 102.529617,293.528870 103.861992,289.488953 
	C104.931602,286.245819 106.318321,283.386047 109.779251,281.608826 
z"/>
<path fill="#1C2F43" opacity="1.000000" stroke="none" 
	d="
M188.646912,233.336700 
	C199.072922,230.858444 205.602203,234.729034 208.823227,244.412231 
	C209.126785,245.324829 209.795990,246.115814 210.551407,247.212769 
	C212.464981,250.509735 214.122559,253.557175 215.780151,256.604614 
	C216.173798,256.555176 216.567429,256.505737 216.961075,256.456299 
	C216.961075,250.288528 217.156601,244.112259 216.888428,237.956177 
	C216.725113,234.207245 217.623276,232.235184 221.756332,232.942154 
	C222.726669,233.108124 223.778442,233.116501 224.744186,232.936600 
	C229.361069,232.076477 230.382538,234.240265 230.222794,238.446869 
	C230.171677,239.792847 227.395203,243.531357 232.602676,243.218597 
	C233.313477,243.509918 233.544098,243.894943 233.635025,244.699493 
	C232.645416,247.104355 232.965927,249.313492 232.842834,251.816910 
	C232.563080,252.820389 232.136627,253.385605 231.792984,254.379456 
	C231.471756,258.437744 231.136520,262.152161 232.121796,266.199402 
	C232.351059,267.070435 232.420578,267.581848 232.473694,268.491791 
	C232.359421,272.211182 230.154495,274.701508 228.687805,277.895630 
	C228.162567,278.298767 227.917145,278.410431 227.267273,278.533447 
	C224.353760,277.519806 224.757996,275.425720 225.089096,273.456360 
	C226.898300,262.694977 225.576126,251.860306 225.871124,241.064499 
	C225.916641,239.398590 225.702866,237.445297 223.328156,237.582245 
	C221.355774,237.695999 221.179276,239.428085 221.127884,240.945145 
	C220.953049,246.106583 221.081879,251.271271 221.050018,256.434540 
	C221.040756,257.933624 221.106949,259.437378 220.989136,260.930420 
	C220.833221,262.906403 220.902542,265.347870 218.607376,265.937286 
	C216.538391,266.468597 215.447754,264.384644 214.503677,262.866302 
	C210.723541,256.786804 207.311050,250.490860 203.770538,244.270767 
	C202.779602,242.529861 201.696381,240.856567 200.569748,239.208282 
	C199.259109,237.290817 197.355225,236.915253 195.267426,237.463806 
	C193.193451,238.008728 193.128494,239.837128 193.112045,241.503326 
	C193.005142,252.329681 193.001770,263.156738 193.113571,273.983063 
	C193.131195,275.688660 193.343414,277.576508 195.704254,277.423706 
	C197.686340,277.295410 197.846680,275.570160 197.886520,274.051453 
	C198.030701,268.556152 197.917435,263.058563 197.954971,257.562042 
	C197.966339,255.897659 197.828674,254.215027 198.151581,252.576813 
	C198.437363,251.126862 198.672577,249.414581 200.434570,249.056244 
	C201.908112,248.756546 202.954605,249.926285 203.658066,251.019348 
	C206.892059,256.044586 210.266571,261.009460 211.939545,267.259705 
	C211.866028,267.928741 211.799408,268.190674 211.522415,268.797302 
	C210.894012,269.473694 210.422012,269.677704 209.520660,269.721741 
	C206.319351,268.777161 205.759048,265.883942 204.051666,263.768066 
	C203.511124,266.426239 204.294601,269.100342 203.055725,271.853149 
	C202.732315,272.329773 202.590973,272.512451 202.300781,273.007935 
	C202.160263,273.486206 202.174149,273.651550 202.176163,273.817047 
	C202.277817,282.171783 199.287796,284.353363 190.987335,282.282898 
	C188.785675,281.733734 189.208954,280.298706 189.133835,278.888916 
	C188.777908,272.207916 188.781708,272.196198 181.911591,272.040436 
	C179.879013,271.994354 177.844498,272.033356 175.870041,270.987122 
	C178.934189,270.987122 182.032074,270.702850 185.053604,271.061615 
	C188.552689,271.477051 189.286438,270.024658 189.179031,266.902069 
	C188.974152,260.945923 189.078598,254.979141 188.992661,248.557770 
	C185.757645,243.422882 186.313446,238.570221 188.646912,233.336700 
z"/>
<path fill="#F5F7F9" opacity="1.000000" stroke="none" 
	d="
M148.791260,258.529846 
	C154.259735,258.802612 157.873367,261.048492 160.285400,265.709991 
	C161.606506,268.263184 162.810837,271.289551 166.627563,271.957458 
	C176.066971,272.350159 177.667664,278.967865 178.760651,286.419495 
	C174.189850,283.892975 169.251144,281.393707 165.036789,277.996002 
	C159.037048,273.158813 152.070801,272.730255 144.994659,272.200134 
	C142.191391,271.990112 139.385040,271.821411 136.265472,271.370087 
	C137.523453,268.252716 132.281189,265.600891 135.867325,262.406006 
	C136.509109,261.490509 137.075760,260.946381 137.866577,260.211090 
	C139.492661,258.537537 141.156830,257.699371 143.619797,257.874573 
	C145.604416,256.711212 147.100494,256.834076 148.791260,258.529846 
z"/>
<path fill="#80A3BD" opacity="1.000000" stroke="none" 
	d="
M362.203369,232.715668 
	C360.017487,238.073151 361.121582,243.444778 360.765686,248.676117 
	C360.584625,251.337158 360.953918,254.103470 360.080963,257.111023 
	C357.586365,252.729248 355.091736,248.347488 352.469391,243.627014 
	C354.054596,243.101532 354.850983,241.861237 355.801208,240.242126 
	C357.988647,237.188416 355.479401,234.424805 356.001282,231.278671 
	C355.809174,228.522705 356.439606,226.075546 355.304932,223.446167 
	C355.978851,220.536896 351.816193,217.018829 356.868469,214.977722 
	C358.694855,211.895187 359.239532,208.563995 360.805725,205.236603 
	C361.021759,204.952438 361.026886,205.017746 360.996216,205.029266 
	C361.417999,204.598480 361.489532,203.992722 361.837463,203.190887 
	C362.017395,202.953400 362.019806,203.017120 361.987976,203.018829 
	C362.471649,202.488831 363.089203,202.138000 364.159149,201.881134 
	C367.029144,201.571945 367.143463,199.223648 368.160583,197.669342 
	C370.695892,193.795013 371.320465,188.771149 375.657745,185.889282 
	C376.666992,190.058060 374.664368,193.534836 372.763306,196.609802 
	C370.591339,200.122971 369.182587,203.762207 367.812500,207.796753 
	C365.521759,210.990860 364.685822,214.392715 364.542786,218.238129 
	C364.679596,219.605469 364.634796,220.690079 364.442871,222.299866 
	C362.510284,225.814728 363.831818,229.396164 362.203369,232.715668 
z"/>
<path fill="#80A5C4" opacity="1.000000" stroke="none" 
	d="
M141.303406,218.580566 
	C141.297638,219.998062 141.562866,221.104919 141.839600,222.552765 
	C140.496674,224.657318 138.811432,223.948914 136.804520,223.472305 
	C136.209961,223.371704 135.974609,223.319885 135.407898,223.128998 
	C132.615082,221.686356 130.466171,219.725037 127.254005,219.200104 
	C126.971626,218.993134 127.003044,218.996078 127.005188,219.011703 
	C126.376732,218.450684 126.649345,217.534729 125.915054,216.944031 
	C121.841347,215.050842 123.570259,212.358612 124.828430,209.922653 
	C125.489029,208.643646 126.809258,207.722626 127.630943,206.504593 
	C128.444229,205.298981 129.346848,203.936951 128.423111,202.399628 
	C127.430054,200.746994 125.957848,201.282257 124.473587,201.637360 
	C122.324257,202.151566 120.144035,202.472900 119.079292,199.333069 
	C125.032013,200.238739 129.760315,196.134506 135.595917,195.123474 
	C137.682098,195.973572 137.926575,197.662308 138.538849,199.590759 
	C140.379669,205.956635 143.227921,211.755005 141.303406,218.580566 
z"/>
<path fill="#424781" opacity="1.000000" stroke="none" 
	d="
M189.060257,232.585999 
	C189.041885,237.732574 189.035675,242.444046 188.980072,247.627136 
	C184.289734,248.149796 179.648788,248.200836 174.553925,248.324158 
	C173.832901,248.211700 173.565811,248.026978 173.011276,247.448990 
	C171.090714,240.858139 171.902481,234.563202 172.159515,228.321075 
	C172.309494,224.679077 174.975998,223.360153 178.850555,223.390808 
	C180.230988,223.480362 181.155151,223.479279 182.463776,223.881058 
	C183.378586,224.367462 183.888519,224.647217 184.703522,224.892548 
	C185.702011,224.337006 186.466095,224.196289 187.646851,224.644531 
	C189.989105,227.046097 188.728775,229.717117 189.060257,232.585999 
z"/>
<path fill="#80A3BD" opacity="1.000000" stroke="none" 
	d="
M345.871826,298.156616 
	C352.316528,299.775299 355.225647,305.151398 358.658813,309.809509 
	C361.057251,313.063721 362.799103,316.801788 364.921265,320.663055 
	C368.568176,322.002655 371.635193,324.284485 375.664734,324.981750 
	C377.773621,324.999695 379.535004,325.003235 381.737000,325.011505 
	C383.347961,325.553101 383.815460,326.626404 384.270386,328.079224 
	C384.096527,329.190948 383.485352,329.517273 382.511230,329.877380 
	C380.846588,330.397156 379.255829,329.103394 378.047241,330.856506 
	C377.296967,333.362000 374.523407,333.546295 374.109406,332.638885 
	C371.968506,327.946320 366.869720,328.379333 363.424988,326.054535 
	C359.181091,323.190308 356.995667,319.112396 354.139160,315.309998 
	C350.523560,310.497162 347.387970,305.094116 341.197632,302.318939 
	C339.627930,297.905396 343.898285,300.806885 344.840881,298.972534 
	C345.259186,298.617981 345.433868,298.485657 345.871826,298.156616 
z"/>
<path fill="#7F9FB6" opacity="1.000000" stroke="none" 
	d="
M363.078796,285.269226 
	C366.235870,283.348755 369.472565,281.931274 373.553223,282.043854 
	C374.905487,282.456512 375.619324,283.130798 375.977081,284.479431 
	C376.761841,286.513611 378.025299,285.986877 379.515717,285.346252 
	C388.844879,282.661621 391.611267,290.210571 395.969971,295.659760 
	C395.365845,296.908966 394.872559,297.967499 393.371399,298.430603 
	C392.305267,298.477417 391.781738,298.099579 391.170105,297.252899 
	C390.954987,296.995819 391.010773,296.990143 391.006958,297.017883 
	C390.794861,296.795654 390.571991,296.559418 390.148743,296.179199 
	C389.962982,296.021484 390.001007,295.998779 389.989868,296.017914 
	C389.777740,295.780609 389.557800,295.541595 389.136688,295.158081 
	C388.954468,294.996124 389.010529,294.988861 389.007843,295.016998 
	C388.789734,294.791260 388.561401,294.549561 388.137695,294.149902 
	C387.955292,293.979675 388.019073,293.980865 388.017212,294.012695 
	C386.334076,291.725891 383.637268,292.179108 381.170654,291.858459 
	C377.114532,295.368317 371.214294,294.986145 369.090454,290.974854 
	C367.680115,288.311035 363.448395,289.208405 363.078796,285.269226 
z"/>
<path fill="#80A3BD" opacity="1.000000" stroke="none" 
	d="
M392.800781,298.545380 
	C393.412476,297.147217 394.148804,296.358154 395.686951,296.060608 
	C397.896362,297.681549 399.239166,299.608124 399.011078,302.666565 
	C399.975616,306.557922 399.403503,310.117218 399.171936,314.107635 
	C398.981903,314.556213 398.978333,314.491852 399.004578,314.473145 
	C398.782593,315.150391 398.329773,315.810211 398.831329,316.825256 
	C400.942078,323.489227 395.669586,324.678833 391.475769,326.969147 
	C390.595093,326.557526 389.830139,326.714783 389.015472,326.110229 
	C388.064270,324.473297 389.070312,323.226685 389.060638,321.568848 
	C390.129150,318.081787 389.845215,314.294647 393.500488,312.065094 
	C396.115356,310.127655 394.503845,307.589294 394.988586,305.079315 
	C394.723206,304.328552 394.462097,303.917572 394.090210,303.289856 
	C394.106506,302.886200 394.233582,302.699249 394.163330,302.236603 
	C393.966003,301.960876 394.025146,301.984100 394.023163,302.015808 
	C393.330933,301.093170 392.818909,300.063721 392.800781,298.545380 
z"/>
<path fill="#7F9FB6" opacity="1.000000" stroke="none" 
	d="
M330.688232,294.781433 
	C331.792938,295.314850 332.582581,295.634979 333.704681,295.972900 
	C334.634094,297.337067 333.573395,297.933624 332.587219,298.880676 
	C331.351410,299.951050 330.987335,301.160919 330.486389,302.644226 
	C330.159790,303.537964 329.858307,304.094208 329.216980,304.811188 
	C328.999481,305.045166 328.988373,304.990021 329.016479,304.990875 
	C328.792999,305.207916 328.552826,305.436218 328.157166,305.860809 
	C327.990173,306.044983 327.989136,305.987000 328.017700,305.991821 
	C326.550751,306.826294 325.041229,307.604462 322.843079,307.145508 
	C322.447723,306.987274 322.510376,306.969604 322.519043,307.000977 
	C322.119568,306.901520 321.750610,306.699219 321.191040,306.204620 
	C320.961029,305.984070 321.018738,305.972900 321.022736,306.002014 
	C320.593964,305.578033 319.996552,305.510437 319.200073,305.179688 
	C318.962372,305.006897 319.004913,304.994263 318.999756,305.015869 
	C317.811035,302.755371 317.272491,300.385559 318.195801,297.478394 
	C319.051727,295.624512 320.716034,295.007050 321.749146,293.312225 
	C322.014374,293.026855 322.508698,293.030487 322.755859,293.029663 
	C325.648743,292.637085 327.847565,294.384949 330.688232,294.781433 
z"/>
<path fill="#293B4E" opacity="1.000000" stroke="none" 
	d="
M103.011383,302.183472 
	C106.708618,302.900055 109.004601,299.414917 112.576874,299.033630 
	C111.700455,304.113861 110.455200,309.192841 109.108353,314.634308 
	C108.854065,315.141083 108.701370,315.285431 108.239243,315.499084 
	C107.074150,315.556000 106.254936,315.359467 105.167969,314.939087 
	C104.713005,314.675964 104.542656,314.551544 104.118759,314.237793 
	C102.426941,310.339661 103.055763,306.469666 103.011383,302.183472 
z"/>
<path fill="#1C2F43" opacity="1.000000" stroke="none" 
	d="
M233.240555,275.871521 
	C232.337860,279.340363 230.877869,282.407806 227.283844,282.139130 
	C222.845596,281.807373 217.145752,284.979462 214.423615,278.326843 
	C213.828827,276.873260 212.521011,275.711426 211.273499,274.201416 
	C209.842255,272.704895 209.538574,271.303558 210.704956,269.373749 
	C210.991135,269.008759 211.168747,268.848877 211.257660,268.769043 
	C213.086197,268.591309 214.256195,269.672272 214.801498,271.018005 
	C216.972687,276.376038 221.049408,278.675140 226.932266,278.791504 
	C227.437775,278.558014 227.608307,278.384186 228.034058,277.949036 
	C229.434601,276.673706 230.039749,275.042206 232.082642,274.661621 
	C232.854065,274.837646 233.166870,275.144348 233.240555,275.871521 
z"/>
<path fill="#4D6A90" opacity="1.000000" stroke="none" 
	d="
M127.189697,219.269455 
	C130.179916,218.637970 132.880997,220.098969 135.818695,221.711670 
	C135.140182,224.426376 136.339249,226.601852 136.919540,228.795410 
	C138.999512,236.657913 140.867355,244.589752 144.080688,252.479279 
	C144.420578,253.247742 144.467270,253.716721 144.147720,254.445862 
	C143.712585,254.691147 143.539612,254.688095 143.134171,254.800262 
	C142.602982,255.413132 142.505096,255.976196 142.210037,256.760376 
	C139.740280,255.159012 139.795868,252.294357 139.045853,249.833542 
	C136.483185,241.425415 133.983826,232.993668 131.715256,224.502823 
	C131.035004,221.956741 129.707245,220.448975 127.189697,219.269455 
z"/>
<path fill="#0F1C2A" opacity="1.000000" stroke="none" 
	d="
M421.371582,231.087891 
	C420.080536,229.669250 418.468353,230.271515 417.168030,229.367920 
	C419.662018,229.322968 420.326294,227.400055 421.190216,225.571320 
	C422.388550,223.034729 423.736969,220.569031 425.090637,217.744324 
	C425.919952,214.649078 427.985352,211.902802 425.048828,209.119904 
	C424.498413,208.598297 424.451111,207.485687 425.197144,206.854080 
	C426.461914,205.783371 427.625000,206.062088 428.789978,207.675598 
	C430.465790,210.474792 430.255981,212.920563 428.945496,215.439636 
	C426.905304,219.361267 424.977875,223.341537 422.842346,227.614471 
	C422.540741,229.067566 422.989990,230.378326 421.371582,231.087891 
z"/>
<path fill="#0F1C2A" opacity="1.000000" stroke="none" 
	d="
M376.156189,185.758484 
	C372.599731,189.955261 371.286102,195.055725 368.601959,199.390152 
	C367.834076,200.630142 368.164001,202.904572 365.454620,202.763733 
	C364.718781,202.300507 364.567780,201.879395 364.902649,201.147095 
	C367.437012,196.554993 369.897949,192.283569 371.892944,187.804626 
	C373.828613,183.458847 376.754211,181.864517 381.652618,183.169998 
	C382.166443,183.319107 382.323425,183.500351 382.575012,184.029572 
	C382.061401,187.345322 380.839417,188.306900 378.240082,185.416168 
	C377.417572,185.293106 376.865356,185.403915 376.156189,185.758484 
z"/>
<path fill="#7F9FB6" opacity="1.000000" stroke="none" 
	d="
M428.996735,207.621277 
	C427.884430,207.371735 426.849091,206.406189 424.957916,207.343185 
	C429.168060,210.292007 427.643097,213.599747 425.427094,217.167587 
	C424.590088,215.078430 427.886810,210.776764 421.582397,211.316849 
	C419.562683,211.489868 420.540802,209.105103 421.059998,207.449997 
	C421.830200,204.994720 422.814545,202.179077 425.240875,202.210022 
	C427.115570,202.233917 428.768341,204.771408 428.996735,207.621277 
z"/>
<path fill="#7F9FB6" opacity="1.000000" stroke="none" 
	d="
M143.915848,255.089737 
	C143.780624,254.386841 143.718475,254.071030 143.712433,253.501373 
	C143.844223,253.091003 143.962631,252.926056 144.362732,252.876984 
	C144.856079,253.899292 145.067719,254.805725 145.415802,256.296417 
	C147.722794,253.079071 149.626495,250.235123 151.741470,247.558105 
	C152.728058,246.309357 153.373917,243.399567 155.193283,244.491837 
	C156.864944,245.495422 154.492355,247.226791 153.881119,248.605713 
	C152.434052,251.870316 149.430267,254.324081 149.010956,258.439423 
	C147.648285,258.544403 146.183746,258.293671 144.353546,257.936279 
	C143.973984,257.048157 143.960068,256.266724 143.915848,255.089737 
z"/>
<path fill="#254359" opacity="1.000000" stroke="none" 
	d="
M233.121719,245.146484 
	C232.985275,244.443863 232.979752,244.085983 232.970886,243.459717 
	C235.911362,242.364212 238.537384,243.416016 239.707260,245.889938 
	C241.625809,249.947021 243.281799,248.982803 245.676254,246.151062 
	C246.127548,246.281357 246.328629,246.531021 246.781998,246.873199 
	C247.600708,248.409912 246.384262,249.152039 245.786331,250.036133 
	C242.024551,255.598083 241.101562,255.651993 237.762009,250.067673 
	C236.584839,248.099289 234.636322,247.124771 233.121719,245.146484 
z"/>
<path fill="#4D6A90" opacity="1.000000" stroke="none" 
	d="
M173.501312,246.884491 
	C173.933228,247.138931 173.968887,247.389084 174.052277,248.017822 
	C172.912338,255.463226 170.426361,262.140259 167.685455,269.018127 
	C167.286575,268.382660 167.169785,267.554504 167.078796,266.308594 
	C168.177597,262.293701 167.878860,258.458954 168.946548,254.876465 
	C169.813416,251.967773 170.135193,248.717743 173.501312,246.884491 
z"/>
<path fill="#293B4E" opacity="1.000000" stroke="none" 
	d="
M233.354095,275.949219 
	C232.959534,275.880585 232.777740,275.602142 232.372665,275.181396 
	C230.579269,271.229095 233.328110,268.872009 235.229263,266.383331 
	C236.255524,265.039948 237.728439,265.903625 238.593109,266.979126 
	C240.462311,269.304108 242.097580,271.778534 241.502228,275.363220 
	C241.142319,275.865479 240.975540,276.011688 240.539642,276.357422 
	C239.019394,274.725494 237.768265,272.894043 236.498840,271.035828 
	C234.705978,272.269409 234.633575,274.281647 233.354095,275.949219 
z"/>
<path fill="#375A74" opacity="1.000000" stroke="none" 
	d="
M388.730103,321.385620 
	C392.566528,322.567566 390.103455,323.986572 388.935883,325.996460 
	C388.555481,326.925629 388.282593,327.206879 387.728790,327.618896 
	C387.297241,327.856537 387.114868,327.933105 386.650024,328.101746 
	C385.979950,328.283569 385.587860,328.318939 384.617188,328.151550 
	C382.589203,327.887726 382.332062,326.866089 382.236572,325.347687 
	C384.264740,323.856079 386.351837,322.695953 388.730103,321.385620 
z"/>
<path fill="#375A74" opacity="1.000000" stroke="none" 
	d="
M179.951080,293.464722 
	C180.662201,293.057373 181.430313,293.040833 182.580963,293.019287 
	C181.296204,298.751221 182.843094,301.626343 188.915176,304.076355 
	C184.184006,305.492493 182.573364,304.652618 181.427078,300.096130 
	C180.906754,298.027802 180.478226,295.936432 179.951080,293.464722 
z"/>
<path fill="#7F9FB6" opacity="1.000000" stroke="none" 
	d="
M378.044067,185.525620 
	C379.197235,184.485901 380.967468,188.078079 381.959381,184.383713 
	C382.643036,183.049286 383.437531,181.913681 384.631500,182.879333 
	C385.880402,183.889404 384.715424,185.211014 384.205353,186.716675 
	C383.981750,187.049255 383.967407,186.979828 384.001648,186.970612 
	C383.587860,187.407684 383.480286,187.945267 383.802063,188.764252 
	C382.966034,192.787659 381.223572,192.159729 379.472900,189.578781 
	C378.756165,188.522079 378.554413,187.116043 378.044067,185.525620 
z"/>
<path fill="#7F9FB6" opacity="1.000000" stroke="none" 
	d="
M345.823669,299.008118 
	C345.990631,303.617645 342.728180,300.793579 341.019470,301.825134 
	C340.446014,301.786438 339.937714,301.495667 339.163330,301.082611 
	C338.284241,300.429260 337.431915,300.529083 336.501587,299.853638 
	C335.731750,298.529785 335.753052,297.507263 336.541351,296.190155 
	C340.236969,295.249207 343.217194,296.002106 345.823669,299.008118 
z"/>
<path fill="#80A3BD" opacity="1.000000" stroke="none" 
	d="
M321.647034,293.076080 
	C321.983215,294.477905 321.773499,295.851562 320.106628,296.902283 
	C317.993835,298.078888 318.369049,300.179138 317.218811,301.828552 
	C313.256531,297.893799 314.476990,295.396545 321.647034,293.076080 
z"/>
<path fill="#254359" opacity="1.000000" stroke="none" 
	d="
M210.614075,269.012024 
	C210.992401,270.391724 210.993683,271.774658 211.000183,273.572601 
	C208.291901,273.961456 205.735352,272.458679 202.549759,273.225891 
	C202.172333,273.024170 202.192719,272.727539 202.269012,271.988464 
	C203.954727,270.005188 205.560074,268.414185 208.413635,268.839050 
	C209.232681,268.966125 209.734863,268.990723 210.614075,269.012024 
z"/>
<path fill="#375A74" opacity="1.000000" stroke="none" 
	d="
M111.522110,232.578796 
	C111.095741,230.305801 110.778015,228.412552 110.460289,226.519318 
	C113.460564,229.846359 113.269386,233.887711 113.925659,238.480331 
	C111.207344,236.819122 112.294495,234.564835 111.522110,232.578796 
z"/>
<path fill="#375A74" opacity="1.000000" stroke="none" 
	d="
M362.318604,232.963898 
	C361.971619,230.531784 361.898956,228.090317 362.060486,225.664413 
	C362.145660,224.384735 361.517944,222.535416 364.047516,222.572723 
	C364.269409,223.050110 364.260651,223.275833 364.320251,223.667267 
	C364.984222,225.025345 365.163086,226.228027 364.188110,227.725006 
	C363.958099,228.443619 363.991364,228.887726 364.090454,229.660095 
	C364.626282,230.655807 364.813751,231.380981 364.386658,232.509048 
	C363.675476,232.874390 363.182831,232.917694 362.318604,232.963898 
z"/>
<path fill="#4D6A90" opacity="1.000000" stroke="none" 
	d="
M198.725128,304.508667 
	C202.333099,304.278229 205.769714,303.593384 210.442902,304.553711 
	C206.348877,306.950836 202.957581,305.409698 199.387619,305.810425 
	C198.623566,305.500946 198.493835,305.152557 198.725128,304.508667 
z"/>
<path fill="#254359" opacity="1.000000" stroke="none" 
	d="
M381.385498,292.142578 
	C380.159515,291.804626 378.978882,292.012878 378.435699,289.414795 
	C381.572388,292.281006 385.901550,288.505066 387.954956,293.643982 
	C385.537323,294.713043 383.973206,292.343292 381.385498,292.142578 
z"/>
<path fill="#375A74" opacity="1.000000" stroke="none" 
	d="
M107.714081,315.029572 
	C108.176872,314.997040 108.342400,315.018097 108.757355,315.017975 
	C108.672455,318.013458 108.536446,321.090454 106.324532,324.184174 
	C105.888725,321.403168 106.636284,318.933502 104.664948,316.739990 
	C104.536118,316.168518 104.539673,315.963989 104.782318,315.566925 
	C105.793648,315.061554 106.639160,315.351379 107.714081,315.029572 
z"/>
<path fill="#80A3BD" opacity="1.000000" stroke="none" 
	d="
M337.056763,296.086609 
	C336.984467,297.325897 336.982513,298.179962 336.984772,299.354279 
	C336.188965,301.247131 334.738983,300.171692 333.255066,300.496948 
	C332.360413,300.523804 331.884277,300.398499 331.210052,299.829620 
	C330.871735,299.311890 330.772430,299.082947 330.804016,298.503357 
	C331.819794,297.586395 332.704712,297.020111 333.813354,296.222229 
	C334.037109,295.990662 334.477570,295.968750 334.697876,295.960144 
	C335.140106,295.820160 335.362030,295.688812 335.972656,295.546936 
	C336.616608,295.591400 336.871857,295.646393 337.056763,296.086609 
z"/>
<path fill="#254359" opacity="1.000000" stroke="none" 
	d="
M375.728271,324.788696 
	C371.704834,326.201721 368.824738,322.754364 365.111847,321.343231 
	C368.959595,320.817047 371.783600,323.919006 375.728271,324.788696 
z"/>
<path fill="#4D6A90" opacity="1.000000" stroke="none" 
	d="
M355.073578,223.599030 
	C358.675140,224.730698 356.486481,227.868759 356.943878,230.707092 
	C356.446655,231.638779 356.521057,232.286346 356.168152,233.098541 
	C355.759735,233.349380 355.555115,233.369446 355.209900,233.114990 
	C355.070282,229.904831 355.071228,226.969208 355.073578,223.599030 
z"/>
<path fill="#375A74" opacity="1.000000" stroke="none" 
	d="
M394.695435,305.035156 
	C396.804504,307.740845 396.076477,310.781464 395.094574,313.812073 
	C394.956299,314.238861 394.564270,314.741241 394.134125,314.123505 
	C393.885254,313.766113 393.960724,313.182831 393.866150,312.343201 
	C394.030273,309.767059 394.218414,307.548920 394.695435,305.035156 
z"/>
<path fill="#254359" opacity="1.000000" stroke="none" 
	d="
M364.774475,218.154724 
	C363.986755,219.140778 362.735779,220.072128 363.220612,218.111710 
	C364.069061,214.681030 364.379852,210.998062 367.110321,208.006653 
	C366.613373,211.230011 365.718964,214.509293 364.774475,218.154724 
z"/>
<path fill="#375A74" opacity="1.000000" stroke="none" 
	d="
M378.411041,331.113586 
	C377.188538,330.650940 375.638306,330.997314 375.800659,329.300201 
	C377.173859,329.948181 377.579407,325.384369 379.518250,328.619049 
	C379.743744,328.995270 380.741302,328.908722 381.723328,329.071716 
	C382.540436,329.530365 383.149139,329.479401 383.887939,329.811401 
	C382.400177,330.875183 380.616791,331.054321 378.411041,331.113586 
z"/>
<path fill="#254359" opacity="1.000000" stroke="none" 
	d="
M360.660431,205.011353 
	C360.474274,208.342239 359.533600,211.602448 357.537354,214.756851 
	C357.347137,211.339691 358.813385,208.201950 360.660431,205.011353 
z"/>
<path fill="#375A74" opacity="1.000000" stroke="none" 
	d="
M114.573288,251.291107 
	C114.661621,250.218933 115.226662,248.896103 115.679306,250.155334 
	C116.475235,252.369537 117.276749,254.803284 116.602776,257.891632 
	C114.230675,256.025543 115.318756,253.513412 114.573288,251.291107 
z"/>
<path fill="#375A74" opacity="1.000000" stroke="none" 
	d="
M421.040344,231.402527 
	C421.419647,230.102127 421.815033,229.207199 422.446228,228.122131 
	C423.038391,231.416000 423.536011,234.929611 420.308899,237.885590 
	C419.266418,235.778992 421.770782,234.069092 421.040344,231.402527 
z"/>
<path fill="#375A74" opacity="1.000000" stroke="none" 
	d="
M198.489365,304.214325 
	C198.918243,304.612915 198.924835,304.947723 198.929688,305.533386 
	C196.418472,306.023010 193.933807,306.105530 191.668518,304.150513 
	C193.801376,304.150513 195.934219,304.150513 198.489365,304.214325 
z"/>
<path fill="#80A3BD" opacity="1.000000" stroke="none" 
	d="
M330.769714,294.741455 
	C328.388092,295.150848 325.888885,294.723267 323.274109,293.270935 
	C326.056366,290.716034 328.151184,293.351074 330.769714,294.741455 
z"/>
<path fill="#293B4E" opacity="1.000000" stroke="none" 
	d="
M384.411316,330.005096 
	C383.518646,329.879272 382.978546,329.708466 382.252075,329.322174 
	C382.670319,328.943726 383.274933,328.780762 383.961670,328.314850 
	C384.043823,328.011871 383.988800,327.997528 383.986938,328.026062 
	C384.674530,327.262299 385.656372,327.610687 386.773224,327.218018 
	C387.048859,327.025604 386.998962,326.998627 386.998901,327.026978 
	C387.413605,326.567688 388.016602,326.513245 388.816528,326.191589 
	C389.052795,326.014984 388.997467,326.005676 388.999329,326.033356 
	C389.656036,326.160675 390.310883,326.260315 391.050323,326.696991 
	C389.011292,328.009399 386.887604,328.984772 384.411316,330.005096 
z"/>
<path fill="#375A74" opacity="1.000000" stroke="none" 
	d="
M317.078491,302.290863 
	C317.242706,300.197571 316.971008,298.130707 319.462463,297.116760 
	C318.537964,299.360596 318.785248,301.778656 319.076355,304.622742 
	C317.815460,304.640594 317.690155,303.482819 317.078491,302.290863 
z"/>
<path fill="#152640" opacity="1.000000" stroke="none" 
	d="
M330.602234,298.322205 
	C330.934875,298.152679 330.965851,298.600708 331.053650,298.807404 
	C331.252045,299.168365 331.362640,299.322601 331.724854,299.610016 
	C333.371582,299.766907 334.766632,299.790619 336.575378,299.744446 
	C337.571564,299.900330 338.154144,300.126129 338.816986,300.656128 
	C336.353729,301.419830 333.454834,299.768799 331.110321,302.619202 
	C330.803986,303.116760 330.638580,303.242859 330.223236,303.182312 
	C330.072083,301.494354 330.170868,299.993073 330.602234,298.322205 
z"/>
<path fill="#80A5C4" opacity="1.000000" stroke="none" 
	d="
M113.113983,193.987595 
	C114.326073,194.839722 115.505173,196.120850 116.851807,197.677490 
	C112.312546,200.553955 113.269196,196.847794 113.113983,193.987595 
z"/>
<path fill="#254359" opacity="1.000000" stroke="none" 
	d="
M384.353271,187.001251 
	C384.629669,183.133911 384.629669,183.133911 382.361267,183.939056 
	C382.064423,184.076752 381.945557,183.612610 381.977509,183.375244 
	C382.667999,181.695892 383.675415,180.338089 385.214294,181.739639 
	C387.077057,183.436157 385.704193,185.277985 384.353271,187.001251 
z"/>
<path fill="#254359" opacity="1.000000" stroke="none" 
	d="
M337.343140,296.492126 
	C336.812866,296.385895 336.639252,296.299957 336.190643,296.120056 
	C335.829681,295.827942 335.743683,295.629700 335.925110,295.248413 
	C336.867157,295.105743 337.541809,295.146179 338.551117,295.234161 
	C340.983795,294.767700 342.819183,295.361908 344.704773,296.924500 
	C345.074585,297.544647 345.325714,297.741058 345.899475,297.893097 
	C346.148987,298.190704 346.162842,298.421539 346.119019,298.994751 
	C343.274170,298.395599 340.487000,297.453979 337.343140,296.492126 
z"/>
<path fill="#4D6A90" opacity="1.000000" stroke="none" 
	d="
M379.395264,285.112305 
	C378.991913,288.036377 376.847321,287.161224 375.124390,286.590179 
	C373.987335,286.213318 374.542450,285.397797 375.726898,284.873932 
	C377.039398,284.879120 378.032227,284.982910 379.395264,285.112305 
z"/>
<path fill="#1C2F43" opacity="1.000000" stroke="none" 
	d="
M355.702698,233.368683 
	C356.056885,232.541397 356.245422,232.011612 356.658447,231.312134 
	C356.067474,234.088730 358.955261,237.057236 356.444031,239.988831 
	C356.028992,238.588242 355.999725,237.194489 355.885132,235.388763 
	C355.594452,234.563522 355.506897,234.126663 355.702698,233.368683 
z"/>
<path fill="#254359" opacity="1.000000" stroke="none" 
	d="
M399.279907,314.221375 
	C398.996857,311.029724 399.011841,307.503265 399.019867,303.512939 
	C400.924530,306.571747 399.891876,310.247864 399.279907,314.221375 
z"/>
<path fill="#80A3BD" opacity="1.000000" stroke="none" 
	d="
M344.857117,296.882843 
	C343.078796,296.740845 341.247192,296.244659 339.150696,295.515076 
	C341.394073,293.155334 343.150085,294.599304 344.857117,296.882843 
z"/>
<path fill="#254359" opacity="1.000000" stroke="none" 
	d="
M392.671265,298.042938 
	C393.318390,299.267059 393.719543,300.318542 394.070923,301.708771 
	C392.177979,301.164215 391.688110,299.275269 390.870239,297.344421 
	C391.445099,297.287323 391.935211,297.578827 392.671265,298.042938 
z"/>
<path fill="#80A3BD" opacity="1.000000" stroke="none" 
	d="
M364.270508,227.905746 
	C363.999573,226.830307 364.074371,225.661118 364.260071,224.162109 
	C366.123993,225.055908 366.684387,226.352982 364.270508,227.905746 
z"/>
<path fill="#80A3BD" opacity="1.000000" stroke="none" 
	d="
M364.521484,232.891602 
	C364.128571,232.119049 364.089020,231.407028 364.102844,230.341675 
	C365.514374,230.177307 366.509491,230.812805 366.950409,232.517181 
	C366.300934,232.868149 365.587891,232.910126 364.521484,232.891602 
z"/>
<path fill="#254359" opacity="1.000000" stroke="none" 
	d="
M399.269165,256.835449 
	C400.756317,255.570602 402.065826,254.767288 403.707794,253.972382 
	C404.222687,255.823975 402.353699,255.776474 401.278961,256.916382 
	C401.021881,257.134888 400.537323,257.110138 400.295624,257.089294 
	C399.733154,257.144653 399.412354,257.220825 399.269165,256.835449 
z"/>
<path fill="#254359" opacity="1.000000" stroke="none" 
	d="
M322.679352,307.306671 
	C324.042664,306.642914 325.637604,306.298553 327.639404,305.975433 
	C326.895569,308.307983 325.016968,308.325378 322.679352,307.306671 
z"/>
<path fill="#254359" opacity="1.000000" stroke="none" 
	d="
M364.881622,200.959991 
	C365.170044,201.344589 365.160095,201.771988 365.131409,202.413147 
	C364.326935,202.773956 363.541199,202.920990 362.355774,203.044281 
	C362.101685,201.397278 363.483978,201.384262 364.881622,200.959991 
z"/>
<path fill="#254359" opacity="1.000000" stroke="none" 
	d="
M404.312134,254.144806 
	C404.341278,252.839600 405.354614,252.371994 406.708313,251.953232 
	C406.930756,253.470490 405.749878,253.817505 404.312134,254.144806 
z"/>
<path fill="#375A74" opacity="1.000000" stroke="none" 
	d="
M207.628418,206.501938 
	C206.453629,207.226852 205.984894,206.886566 206.198578,205.431412 
	C207.077194,205.055939 207.984436,204.856476 207.628418,206.501938 
z"/>
<path fill="#375A74" opacity="1.000000" stroke="none" 
	d="
M418.486786,239.525482 
	C418.664276,239.051559 419.094116,238.552841 419.781433,238.016876 
	C419.605621,238.486664 419.172363,238.993683 418.486786,239.525482 
z"/>
<path fill="#7F9FB6" opacity="1.000000" stroke="none" 
	d="
M137.769409,260.083496 
	C138.075638,260.992249 137.909882,261.859833 136.370728,262.063354 
	C136.145676,261.204346 136.454742,260.430176 137.769409,260.083496 
z"/>
<path fill="#80A3BD" opacity="1.000000" stroke="none" 
	d="
M370.943054,232.574646 
	C370.557953,232.865341 370.107452,232.904999 369.321716,232.883972 
	C369.356049,231.669373 369.787659,230.750488 370.943054,232.574646 
z"/>
<path fill="#254359" opacity="1.000000" stroke="none" 
	d="
M329.761505,303.207581 
	C329.973297,302.995667 330.471466,303.026520 330.720398,303.008606 
	C330.962708,303.979034 330.382141,304.622650 329.327393,305.111755 
	C329.182892,304.503265 329.366302,303.961395 329.761505,303.207581 
z"/>
<path fill="#4D6A90" opacity="1.000000" stroke="none" 
	d="
M125.696426,217.322021 
	C127.389107,216.132584 126.917114,217.665604 127.084450,218.728287 
	C126.593758,218.566391 126.180191,218.105438 125.696426,217.322021 
z"/>
<path fill="#254359" opacity="1.000000" stroke="none" 
	d="
M412.317505,247.166138 
	C412.457367,246.403778 412.953705,245.774811 413.743225,245.057037 
	C414.407623,246.227692 413.623932,246.812210 412.317505,247.166138 
z"/>
<path fill="#254359" opacity="1.000000" stroke="none" 
	d="
M399.042297,316.612183 
	C397.751434,316.579193 397.913422,315.725555 398.712524,314.619568 
	C399.044739,315.029785 399.058655,315.605194 399.042297,316.612183 
z"/>
<path fill="#375A74" opacity="1.000000" stroke="none" 
	d="
M103.859039,314.361115 
	C104.108467,314.101898 104.351723,314.155304 104.966026,314.252136 
	C105.548805,314.582306 105.638359,314.903107 105.485619,315.487488 
	C105.228157,315.826996 105.090935,315.937042 104.743134,316.210083 
	C104.306007,315.806580 104.079437,315.240143 103.859039,314.361115 
z"/>
<path fill="#375A74" opacity="1.000000" stroke="none" 
	d="
M319.058167,305.328003 
	C319.671173,304.671783 320.192139,305.025269 320.856506,305.754089 
	C320.402466,305.903778 319.778229,305.776428 319.058167,305.328003 
z"/>
<path fill="#7F9FB6" opacity="1.000000" stroke="none" 
	d="
M142.261871,256.793884 
	C142.180389,256.424408 142.316635,255.857101 142.677277,255.102661 
	C142.760986,255.475693 142.620300,256.035889 142.261871,256.793884 
z"/>
<path fill="#254359" opacity="1.000000" stroke="none" 
	d="
M409.286133,250.144943 
	C409.455444,249.561020 409.943878,249.087784 410.741272,248.806000 
	C410.568573,249.416855 410.086914,249.836243 409.286133,250.144943 
z"/>
<path fill="#80A3BD" opacity="1.000000" stroke="none" 
	d="
M355.668457,233.013794 
	C355.879822,233.496201 355.891327,233.921234 355.851349,234.661514 
	C355.558533,234.460907 355.317230,233.945038 355.072632,233.134827 
	C355.069366,232.840469 355.468628,232.956406 355.668457,233.013794 
z"/>
<path fill="#254359" opacity="1.000000" stroke="none" 
	d="
M411.318970,248.898819 
	C410.344574,248.280914 411.006470,247.802994 411.709778,247.110825 
	C412.747345,247.736984 412.016174,248.203766 411.318970,248.898819 
z"/>
<path fill="#254359" opacity="1.000000" stroke="none" 
	d="
M361.679871,203.023926 
	C361.862366,203.556412 361.707367,204.159439 361.258972,204.901611 
	C361.091156,204.392014 361.216736,203.743240 361.679871,203.023926 
z"/>
<path fill="#254359" opacity="1.000000" stroke="none" 
	d="
M384.060852,188.643311 
	C382.640198,188.758682 382.878082,188.063614 383.759277,187.110596 
	C384.066681,187.409210 384.097473,187.857010 384.060852,188.643311 
z"/>
<path fill="#254359" opacity="1.000000" stroke="none" 
	d="
M328.313843,306.066437 
	C328.149750,305.719238 328.309296,305.393494 328.756714,305.029724 
	C328.908936,305.357117 328.773224,305.722504 328.313843,306.066437 
z"/>
<path fill="#254359" opacity="1.000000" stroke="none" 
	d="
M414.331665,245.084747 
	C414.252808,244.699539 414.539673,244.361710 415.187164,243.993561 
	C415.264343,244.352859 414.980865,244.742493 414.331665,245.084747 
z"/>
<path fill="#375A74" opacity="1.000000" stroke="none" 
	d="
M321.053650,306.337036 
	C321.372437,306.138824 321.783813,306.293549 322.361481,306.740295 
	C322.067261,306.918182 321.606750,306.804077 321.053650,306.337036 
z"/>
<path fill="#254359" opacity="1.000000" stroke="none" 
	d="
M393.888916,302.239899 
	C394.175720,302.132172 394.391785,302.297119 394.581818,302.488007 
	C394.595581,302.501801 394.419800,302.704346 394.155762,302.946167 
	C393.923553,302.888397 393.867706,302.703644 393.888916,302.239899 
z"/>
<path fill="#7F9FB6" opacity="1.000000" stroke="none" 
	d="
M361.113220,282.388184 
	C361.333221,282.177765 361.568604,282.292236 361.757416,282.781036 
	C361.564209,282.884796 361.370117,282.737396 361.113220,282.388184 
z"/>
<path fill="#375A74" opacity="1.000000" stroke="none" 
	d="
M186.161163,292.914398 
	C186.003052,292.992981 185.998688,292.524841 185.994659,292.291016 
	C186.100174,292.316742 186.209732,292.576263 186.161163,292.914398 
z"/>
<path fill="#254359" opacity="1.000000" stroke="none" 
	d="
M387.846558,294.321289 
	C388.284302,294.143402 388.613312,294.307098 388.973755,294.757996 
	C388.582703,294.917725 388.160278,294.790283 387.846558,294.321289 
z"/>
<path fill="#7F9FB6" opacity="1.000000" stroke="none" 
	d="
M335.944244,295.155457 
	C336.192535,295.065308 336.050873,295.544739 335.983276,295.785461 
	C335.915680,296.026154 335.416992,295.999695 335.167603,295.975616 
	C335.177460,295.716217 335.436707,295.480896 335.944244,295.155457 
z"/>
<path fill="#254359" opacity="1.000000" stroke="none" 
	d="
M388.911774,295.320587 
	C389.303314,295.142426 389.652130,295.288757 389.989838,295.736084 
	C389.608826,295.906403 389.238953,295.775726 388.911774,295.320587 
z"/>
<path fill="#254359" opacity="1.000000" stroke="none" 
	d="
M407.313049,252.048950 
	C407.137512,251.701065 407.286499,251.361557 407.737549,251.003372 
	C407.905609,251.342239 407.771576,251.699799 407.313049,252.048950 
z"/>
<path fill="#254359" opacity="1.000000" stroke="none" 
	d="
M389.925476,296.347229 
	C390.305634,296.159882 390.648315,296.298279 390.997040,296.741150 
	C390.631378,296.921417 390.259674,296.797211 389.925476,296.347229 
z"/>
<path fill="#254359" opacity="1.000000" stroke="none" 
	d="
M408.314331,251.072144 
	C408.144287,250.709778 408.304504,250.380478 408.752563,250.012726 
	C408.908478,250.351242 408.776520,250.728226 408.314331,251.072144 
z"/>
<path fill="#FBFDFD" opacity="1.000000" stroke="none" 
	d="
M141.407974,218.935089 
	C139.726685,212.876221 138.420944,206.861206 137.061859,200.464615 
	C138.287704,197.971252 138.465546,195.288223 140.632004,193.265533 
	C140.913589,192.573853 140.974762,192.138992 141.172501,191.403442 
	C142.548172,189.531525 144.250244,189.724045 145.806427,190.190750 
	C151.944611,192.031601 157.022430,190.037842 161.635513,186.094727 
	C162.383392,185.455444 163.220123,184.936539 164.589676,184.922638 
	C165.551666,189.889709 167.937088,193.525223 172.624817,195.939133 
	C172.706787,203.149796 170.676926,209.949615 169.929077,217.336426 
	C160.781769,222.737381 151.415024,223.878006 141.407974,218.935089 
z"/>
<path fill="#F6F8F9" opacity="1.000000" stroke="none" 
	d="
M137.121704,172.421692 
	C136.600037,170.410812 136.271835,168.617081 136.237396,166.817719 
	C136.140106,161.736954 136.539917,157.096313 142.885818,155.499374 
	C144.914673,154.988831 146.584686,152.822968 148.278915,151.262543 
	C151.271423,148.506378 155.619797,148.766312 156.489700,152.539200 
	C158.142670,159.708450 162.980026,162.382431 169.593521,164.020294 
	C170.085526,164.288391 170.244095,164.398254 170.534332,164.765991 
	C170.688721,165.215424 170.711456,165.406982 170.692047,165.883331 
	C170.582642,166.345413 170.515350,166.522720 170.148956,167.167053 
	C169.734512,167.771805 169.619186,167.909485 169.149384,168.431076 
	C168.680206,168.941544 168.565491,169.068069 168.132263,169.593353 
	C167.600891,170.268753 167.417328,170.563934 167.137695,171.129410 
	C166.932861,171.562302 166.846802,171.739243 166.608795,172.180588 
	C166.255478,172.827515 166.020538,173.188614 165.529938,173.802185 
	C165.110580,174.225662 164.922897,174.381393 164.419174,174.739258 
	C163.382431,175.097153 138.177795,172.917343 137.121704,172.421692 
z"/>
<path fill="#84AAC4" opacity="1.000000" stroke="none" 
	d="
M136.703766,172.635925 
	C144.670013,170.728409 152.440552,170.769745 160.062073,173.639755 
	C161.446365,174.161041 162.977859,174.372528 164.670929,173.127747 
	C167.943222,175.354141 166.660919,178.296188 166.120728,181.563049 
	C165.772598,182.804550 165.471909,183.611786 165.057526,184.727325 
	C158.860199,192.884689 151.126648,194.503754 141.685394,191.099182 
	C138.540588,185.403290 136.357071,179.551575 136.703766,172.635925 
z"/>
<path fill="#F1F3F5" opacity="1.000000" stroke="none" 
	d="
M166.303101,181.758362 
	C164.405853,179.464447 164.931122,176.632294 165.001892,173.429901 
	C165.040085,172.992386 165.015518,173.028625 164.993805,173.032272 
	C165.451660,172.607941 165.484741,171.989777 165.836945,171.194077 
	C166.017899,170.957687 166.013641,171.009125 165.991302,171.022064 
	C166.420654,170.595688 166.489471,169.992523 166.834442,169.194717 
	C167.013474,168.958527 167.007751,169.005798 166.985657,169.014648 
	C167.204834,168.792999 167.443054,168.559372 167.852173,168.142700 
	C168.026184,167.962830 168.012665,168.012177 167.988190,168.019684 
	C168.203979,167.794678 168.442200,167.560089 168.853729,167.144165 
	C169.029404,166.965240 169.015472,167.015015 168.990860,167.022919 
	C169.204605,166.795746 169.442062,166.559784 169.856079,166.145294 
	C170.033539,165.967667 170.021515,166.016220 169.998352,166.025650 
	C170.370270,165.616379 170.492935,165.082153 170.871002,164.464050 
	C173.575821,163.379547 175.054901,164.702530 175.719513,166.732559 
	C176.623108,169.492554 175.815552,172.688583 173.443771,173.709518 
	C169.659302,175.338608 168.462784,178.610962 166.303101,181.758362 
z"/>
<path fill="#474A82" opacity="1.000000" stroke="none" 
	d="
M140.477249,193.042542 
	C140.914841,195.811157 140.801361,198.533310 137.358368,199.988983 
	C136.099457,198.830856 135.954803,197.382736 135.954437,195.537567 
	C136.548096,192.896881 138.478119,193.288086 140.477249,193.042542 
z"/>
<path fill="#84AAC4" opacity="1.000000" stroke="none" 
	d="
M170.839706,164.291229 
	C170.918945,164.864151 170.703262,165.344635 170.231384,165.930099 
	C169.927017,165.624176 169.878845,165.213272 169.878815,164.490448 
	C170.132889,164.185272 170.338821,164.192017 170.839706,164.291229 
z"/>
<path fill="#80A5C4" opacity="1.000000" stroke="none" 
	d="
M173.931427,246.430191 
	C171.048904,252.800751 169.878296,259.284058 167.351471,265.640259 
	C166.924774,252.731903 166.068420,239.550064 168.583221,226.087570 
	C170.020798,225.367340 171.274673,224.921097 172.764069,224.195190 
	C173.023849,223.986435 173.001038,224.001846 172.990814,224.011047 
	C173.212296,223.789291 173.443710,223.558029 173.847443,223.152039 
	C174.020035,222.977631 173.998047,222.997238 173.985596,223.005142 
	C174.413971,222.575912 175.011353,222.513916 175.794418,222.166107 
	C176.023224,221.983643 175.999481,221.999191 175.987198,222.006287 
	C176.414246,221.575653 177.010544,221.513931 177.792801,221.168091 
	C178.021439,220.986237 177.999969,220.999969 177.988922,221.006348 
	C178.415878,220.573715 179.012390,220.514008 179.793793,220.168045 
	C180.022522,219.986725 180.000610,219.999573 179.989578,220.005798 
	C183.097885,219.850891 183.289673,220.443710 181.256348,224.700241 
	C173.227600,225.136032 174.087616,224.068039 174.017456,232.155334 
	C173.977509,236.760559 173.981216,241.366165 173.931427,246.430191 
z"/>
<path fill="#7FABC8" opacity="1.000000" stroke="none" 
	d="
M144.734253,252.563049 
	C144.644424,252.992859 144.173706,253.068893 143.949753,253.162430 
	C141.566467,253.153351 141.172516,251.460861 140.722595,249.865799 
	C138.395538,241.615860 136.112457,233.353424 133.754135,225.112473 
	C133.294571,223.506577 132.850861,222.120560 135.658676,222.067078 
	C136.013351,222.013718 136.000153,221.990982 135.986725,221.990860 
	C137.598465,223.130692 139.448105,223.499847 141.596756,223.857910 
	C144.557800,233.288895 144.898575,242.688675 144.734253,252.563049 
z"/>
<path fill="#4D6A90" opacity="1.000000" stroke="none" 
	d="
M141.857849,223.836365 
	C139.834824,224.139008 137.900681,223.988541 136.137131,222.309143 
	C137.683975,222.290359 139.394653,222.589996 141.478210,222.891708 
	C141.870041,223.103851 141.888962,223.313904 141.857849,223.836365 
z"/>
<path fill="#4D6A90" opacity="1.000000" stroke="none" 
	d="
M172.660431,223.961914 
	C172.239166,225.384415 171.071945,226.061996 169.088791,225.790833 
	C168.727188,225.697632 168.696884,225.389481 168.782440,225.261063 
	C170.011002,224.734238 171.154007,224.335815 172.660431,223.961914 
z"/>
<path fill="#F6F8F9" opacity="1.000000" stroke="none" 
	d="
M266.126343,280.204529 
	C250.652863,276.889648 247.291214,260.667297 250.842560,249.471420 
	C254.863205,236.796051 268.031097,231.121338 280.644043,236.226257 
	C285.345947,238.129303 288.700592,241.437546 290.572510,246.196472 
	C291.321899,248.101654 291.306152,249.418854 288.658081,249.318985 
	C285.452240,249.198059 282.655457,249.727432 280.175232,246.052689 
	C275.952545,239.796295 264.902344,240.936462 260.948059,247.727585 
	C257.154144,254.243225 257.097961,261.193329 261.062927,267.660980 
	C265.666077,275.169708 278.370514,275.244354 282.221985,268.033997 
	C284.394592,263.966644 283.735016,262.961700 279.168701,262.727417 
	C276.927277,262.612427 273.538025,264.304321 273.674957,259.455994 
	C273.752686,256.703857 274.292572,255.566330 277.235840,255.745514 
	C281.054962,255.977997 284.907898,255.980560 288.727997,255.761902 
	C291.499725,255.603241 292.068481,256.730316 291.994080,259.234009 
	C291.830811,264.728760 292.037292,270.234283 291.883240,275.729553 
	C291.838043,277.340820 293.237915,279.844604 289.618286,280.028137 
	C285.176636,280.253357 284.679779,280.169159 283.804443,276.114685 
	C278.673065,280.333160 272.920044,281.744385 266.126343,280.204529 
z"/>
<path fill="#F1F3F5" opacity="1.000000" stroke="none" 
	d="
M241.599365,275.910889 
	C239.798355,272.646851 238.287628,269.574463 236.502472,265.943970 
	C234.962616,268.995026 233.616699,271.661835 232.228516,274.671844 
	C231.135086,275.961823 231.587204,278.634583 228.637817,277.744904 
	C227.406769,274.473022 230.173981,272.514771 231.046448,269.534729 
	C234.346344,263.761963 232.369598,258.187897 231.730469,252.320694 
	C232.711426,249.720291 227.417023,247.056839 232.655731,244.921906 
	C239.264175,244.171097 239.130249,249.906815 241.359863,253.499176 
	C243.235825,251.437469 244.977646,249.523193 246.851532,247.307724 
	C247.825500,246.851364 249.518066,245.453964 248.763901,247.876144 
	C248.372192,249.134140 247.036346,250.098175 246.019226,251.502441 
	C243.151596,256.346405 244.705490,260.734283 246.483261,265.046753 
	C247.364075,267.183441 248.473267,269.218445 248.766861,271.905762 
	C250.145203,274.871674 248.360703,276.219025 246.552902,277.414001 
	C244.597488,278.706482 243.166946,277.537109 241.599365,275.910889 
z"/>
<path fill="#254359" opacity="1.000000" stroke="none" 
	d="
M249.025818,271.925964 
	C245.643112,268.002563 244.375320,262.889404 242.594635,258.017090 
	C241.594727,255.281174 244.419235,254.124084 245.620209,251.987625 
	C245.933075,252.277802 245.954727,252.745743 245.980179,253.565094 
	C245.883820,256.951538 245.691391,259.994965 246.910965,263.234436 
	C247.024521,263.547791 246.975739,263.510132 246.978058,263.479370 
	C247.257111,264.153503 247.480042,264.876923 248.016159,265.831177 
	C249.150467,267.833496 250.278549,269.554169 249.025818,271.925964 
z"/>
<path fill="#7F9FB6" opacity="1.000000" stroke="none" 
	d="
M247.130875,263.075745 
	C245.335007,260.731750 242.837051,258.030396 245.866730,254.238953 
	C248.239578,256.547089 246.773438,259.714630 247.130875,263.075745 
z"/>
<path fill="#7F9FB6" opacity="1.000000" stroke="none" 
	d="
M248.194580,265.704041 
	C247.284515,265.905060 247.112701,265.096558 246.968857,263.862122 
	C247.346344,264.078979 247.712326,264.709351 248.194580,265.704041 
z"/>
<path fill="#375A74" opacity="1.000000" stroke="none" 
	d="
M247.458389,252.561142 
	C247.433395,252.513763 247.483383,252.608521 247.458389,252.561142 
z"/>
<path fill="#375A74" opacity="1.000000" stroke="none" 
	d="
M200.828522,219.845963 
	C202.007263,215.560150 202.650436,211.473358 205.775284,208.396805 
	C203.782928,214.012070 202.338623,219.774139 201.055267,226.351227 
	C199.367310,223.643631 200.546280,221.966644 200.828522,219.845963 
z"/>
<path fill="#4D6A90" opacity="1.000000" stroke="none" 
	d="
M181.352646,224.933289 
	C180.047974,223.514526 183.947891,221.451401 180.286865,220.096298 
	C180.493393,218.550903 181.763290,218.142593 183.592773,217.945557 
	C183.709335,219.835434 183.307526,221.571548 182.887207,223.697693 
	C182.439072,224.336029 182.009476,224.584366 181.352646,224.933289 
z"/>
<path fill="#7FABC8" opacity="1.000000" stroke="none" 
	d="
M187.974579,224.519043 
	C187.246338,224.889206 186.499176,224.921722 185.380310,224.906174 
	C185.116318,223.899658 184.940247,222.708328 186.179169,222.406677 
	C187.556824,222.071259 187.773026,223.172623 187.974579,224.519043 
z"/>
<path fill="#4D6A90" opacity="1.000000" stroke="none" 
	d="
M175.717834,221.993820 
	C175.554047,222.346924 175.084869,222.710190 174.294403,223.043259 
	C174.452896,222.676697 174.932663,222.340347 175.717834,221.993820 
z"/>
<path fill="#4D6A90" opacity="1.000000" stroke="none" 
	d="
M177.713593,220.987946 
	C177.549362,221.340103 177.077286,221.694000 176.290070,222.030640 
	C176.451859,221.672150 176.928818,221.330917 177.713593,220.987946 
z"/>
<path fill="#4D6A90" opacity="1.000000" stroke="none" 
	d="
M179.710251,219.976685 
	C179.549347,220.342270 179.076157,220.697800 178.290421,221.033035 
	C178.451248,220.664032 178.924622,220.315338 179.710251,219.976685 
z"/>
<path fill="#4D6A90" opacity="1.000000" stroke="none" 
	d="
M185.271362,216.986877 
	C185.301453,216.666214 185.775909,216.492416 186.250366,216.318619 
	C186.072144,216.590332 185.893936,216.862030 185.271362,216.986877 
z"/>
<path fill="#4D6A90" opacity="1.000000" stroke="none" 
	d="
M173.764114,223.060852 
	C173.849289,223.277557 173.678558,223.577484 173.244202,223.948837 
	C173.156448,223.728195 173.332336,223.436127 173.764114,223.060852 
z"/>
<path fill="#4D6A90" opacity="1.000000" stroke="none" 
	d="
M185.121643,217.133972 
	C185.064774,217.525879 184.842087,217.750900 184.330963,218.003662 
	C184.111130,218.099304 183.930023,217.922287 183.837418,217.829407 
	C183.895432,217.443741 184.113693,217.215668 184.613281,216.946167 
	C184.826996,216.840027 185.024460,217.034973 185.121643,217.133972 
z"/>
<path fill="#F1F3F5" opacity="1.000000" stroke="none" 
	d="
M343.973236,254.469452 
	C343.973297,262.233154 343.780029,269.563354 344.050873,276.876404 
	C344.180084,280.365631 342.267761,280.169830 340.029877,279.984619 
	C337.971832,279.814301 335.252319,281.105560 335.305359,276.995514 
	C335.470642,264.182129 335.356293,251.365204 335.371765,238.549683 
	C335.373505,237.107742 335.061859,235.086090 337.316437,235.331223 
	C340.478210,235.674973 344.184814,233.476562 346.553986,237.902237 
	C351.099518,246.393463 356.075043,254.654541 360.875092,263.009399 
	C361.288849,263.729584 361.724243,264.437347 362.174500,265.192657 
	C363.903900,264.695557 363.074188,263.282654 363.082916,262.361725 
	C363.158539,254.373596 363.269897,246.380630 363.060791,238.397202 
	C362.957306,234.445892 365.530853,235.325699 367.716187,235.229370 
	C369.958923,235.130524 371.924286,234.947784 371.882233,238.383179 
	C371.725342,251.196564 371.836884,264.013092 371.802399,276.828339 
	C371.799164,278.027435 372.287537,280.110291 370.341217,279.851624 
	C367.167419,279.429840 363.265076,282.035858 360.883942,277.866943 
	C356.598755,270.364288 352.312683,262.862152 348.022339,255.362442 
	C346.970581,253.523911 345.900757,251.695709 344.200897,248.760483 
	C344.090363,251.288284 344.030426,252.658615 343.973236,254.469452 
z"/>
<path fill="#375A74" opacity="1.000000" stroke="none" 
	d="
M374.323517,254.963898 
	C375.173889,254.836456 376.076965,254.713104 376.475769,255.605377 
	C375.893951,255.746216 375.312134,255.887054 374.414368,256.060608 
	C374.131378,255.838333 374.164337,255.583328 374.323517,254.963898 
z"/>
<path fill="#F3F5F6" opacity="1.000000" stroke="none" 
	d="
M320.942230,242.967316 
	C318.291595,242.967667 316.079865,243.263275 313.976776,242.910797 
	C308.563690,242.003494 307.415039,244.369583 307.631836,249.369308 
	C307.791962,253.061234 308.583862,254.404205 312.369537,254.009674 
	C315.660461,253.666702 319.015320,253.954926 322.341644,253.928070 
	C324.839020,253.907898 327.075439,253.377335 327.049164,257.519806 
	C327.022522,261.711304 324.906342,261.559753 322.061249,261.481842 
	C318.404816,261.381653 314.735840,261.601746 311.086975,261.407379 
	C308.386658,261.263580 307.778564,262.348724 307.726593,264.876892 
	C307.573547,272.327332 307.458099,272.324432 314.954712,272.319366 
	C318.114899,272.317261 321.286224,272.482788 324.432159,272.270782 
	C327.570343,272.059387 329.112488,272.525452 329.172028,276.406860 
	C329.234558,280.488068 327.104767,280.033539 324.554291,280.015259 
	C317.402649,279.964050 310.243286,279.807343 303.101440,280.076050 
	C299.694611,280.204224 299.009125,278.998169 299.052673,275.856049 
	C299.220856,263.716583 299.227234,251.571747 299.043945,239.432693 
	C298.995392,236.217316 299.789459,235.060486 303.159058,235.170166 
	C310.469604,235.408096 317.802612,235.459946 325.107666,235.148056 
	C328.727509,234.993500 328.939728,236.557510 329.116852,239.485168 
	C329.335022,243.091217 327.485199,243.183411 324.922333,242.983658 
	C323.765015,242.893463 322.594940,242.967697 320.942230,242.967316 
z"/>
<path fill="#375A74" opacity="1.000000" stroke="none" 
	d="
M387.027161,261.596130 
	C384.003143,262.101868 381.292114,262.538574 378.783112,260.761444 
	C381.662201,260.594940 384.591217,259.046234 387.027161,261.596130 
z"/>
<path fill="#254359" opacity="1.000000" stroke="none" 
	d="
M389.167236,253.551300 
	C385.296265,255.155289 381.617859,254.942108 377.959351,253.197922 
	C381.742584,253.197922 385.525787,253.197922 389.167236,253.551300 
z"/>
<path fill="#375A74" opacity="1.000000" stroke="none" 
	d="
M382.561951,256.138824 
	C383.696350,256.382812 385.514313,256.606445 383.659851,257.480316 
	C382.368561,258.088806 380.366608,257.189240 378.259430,256.906677 
	C379.803223,255.393997 381.058136,256.205292 382.561951,256.138824 
z"/>
<path fill="#254359" opacity="1.000000" stroke="none" 
	d="
M404.603638,244.850357 
	C405.397552,243.684250 406.220123,242.788330 407.311584,241.746948 
	C407.764587,241.611328 407.948669,241.621201 408.160767,241.906219 
	C407.370026,243.093597 406.551331,244.005844 405.452301,245.050995 
	C404.992065,245.162781 404.812164,245.141663 404.603638,244.850357 
z"/>
<path fill="#254359" opacity="1.000000" stroke="none" 
	d="
M410.865631,238.140015 
	C410.944733,237.520035 411.058655,237.192093 411.271759,236.623199 
	C411.370941,236.382278 411.412842,236.116028 411.419708,236.256775 
	C412.375702,236.852692 412.466339,237.496323 411.659729,238.425323 
	C411.284119,238.513397 411.092285,238.472717 410.865631,238.140015 
z"/>
<path fill="#254359" opacity="1.000000" stroke="none" 
	d="
M396.735718,258.131104 
	C397.514343,257.396667 398.207611,256.998047 399.173828,256.486694 
	C399.446808,256.373901 399.764374,256.708923 399.909149,256.888702 
	C399.349976,257.460022 398.646057,257.851562 397.638184,258.298767 
	C397.106293,258.391937 396.878326,258.429474 396.735718,258.131104 
z"/>
<path fill="#254359" opacity="1.000000" stroke="none" 
	d="
M401.314697,247.906158 
	C400.849487,248.630096 400.413269,248.967590 399.717438,249.414093 
	C399.266602,249.487869 399.075439,249.452621 398.856079,249.127121 
	C399.238800,248.496384 399.649719,248.155899 400.319946,247.731750 
	C400.834076,247.605316 401.088867,247.562515 401.314697,247.906158 
z"/>
<path fill="#254359" opacity="1.000000" stroke="none" 
	d="
M392.592468,252.292725 
	C392.318329,252.994324 391.805847,253.207047 391.270569,252.567352 
	C391.634033,252.398102 391.997467,252.228851 392.592468,252.292725 
z"/>
<path fill="#254359" opacity="1.000000" stroke="none" 
	d="
M397.205536,258.215027 
	C396.817139,258.624908 396.300018,258.895386 395.481659,259.186829 
	C394.913147,259.263855 394.645813,259.319946 394.529602,258.995239 
	C395.196381,258.355804 395.712006,258.097168 396.524353,257.816895 
	C396.821075,257.795258 397.076813,258.075623 397.205536,258.215027 
z"/>
<path fill="#254359" opacity="1.000000" stroke="none" 
	d="
M395.054779,259.060059 
	C394.777557,259.795258 394.141968,260.143494 393.619965,259.651489 
	C393.098328,259.159851 393.872986,259.029572 394.421234,258.704163 
	C394.680756,258.614410 394.929108,258.912354 395.054779,259.060059 
z"/>
<path fill="#254359" opacity="1.000000" stroke="none" 
	d="
M407.732391,241.746613 
	C407.714935,241.297058 407.912872,241.041901 408.389160,240.719788 
	C408.783936,240.610977 408.963806,240.618423 409.161499,240.895340 
	C409.107452,241.506851 408.928802,241.778671 408.416016,242.080811 
	C408.188721,242.181335 407.884277,241.891754 407.732391,241.746613 
z"/>
<path fill="#254359" opacity="1.000000" stroke="none" 
	d="
M408.747162,240.744568 
	C408.947632,240.409576 409.291229,240.215591 409.634827,240.021606 
	C409.648376,240.297501 409.661926,240.573425 409.427429,241.007080 
	C409.179321,241.164825 408.890289,240.885590 408.747162,240.744568 
z"/>
<path fill="#254359" opacity="1.000000" stroke="none" 
	d="
M411.320740,238.371948 
	C411.128082,238.693604 410.780273,238.833130 410.432434,238.972672 
	C410.420624,238.709778 410.408783,238.446869 410.613861,238.015976 
	C410.830780,237.847977 411.165588,238.189835 411.320740,238.371948 
z"/>
<path fill="#254359" opacity="1.000000" stroke="none" 
	d="
M394.317627,251.333496 
	C394.568848,251.345795 394.622986,251.526291 394.677124,251.706787 
	C394.491608,251.638443 394.306091,251.570084 394.317627,251.333496 
z"/>
<path fill="#254359" opacity="1.000000" stroke="none" 
	d="
M405.023743,245.031982 
	C404.813171,245.354462 404.454315,245.525024 404.095459,245.695557 
	C404.098511,245.444336 404.101562,245.193130 404.339783,244.761047 
	C404.574982,244.580185 404.875488,244.880051 405.023743,245.031982 
z"/>
<path fill="#254359" opacity="1.000000" stroke="none" 
	d="
M396.306213,250.717087 
	C396.313599,250.472443 396.510132,250.417191 396.706665,250.361938 
	C396.636230,250.543442 396.565796,250.724960 396.306213,250.717087 
z"/>
<path fill="#254359" opacity="1.000000" stroke="none" 
	d="
M399.305603,249.346695 
	C399.036041,249.613892 398.614258,249.704697 398.192505,249.795502 
	C398.216461,249.548981 398.240417,249.302460 398.546143,248.946411 
	C398.827911,248.836868 399.153412,249.170303 399.305603,249.346695 
z"/>
<path fill="#254359" opacity="1.000000" stroke="none" 
	d="
M400.923950,246.901749 
	C400.945221,246.849899 401.396149,246.853729 401.621399,246.843597 
	C402.023529,246.841171 402.200409,246.848877 402.383911,247.122101 
	C402.268555,247.712051 402.053955,247.954559 401.516205,248.203857 
	C401.285675,248.292603 400.935669,247.967743 400.757507,247.807922 
	C400.579315,247.648102 400.683502,247.284286 400.739227,247.103455 
	C400.794952,246.922623 400.902679,246.953598 400.923950,246.901749 
z"/>
<path fill="#254359" opacity="1.000000" stroke="none" 
	d="
M401.981964,246.972656 
	C402.193451,246.667145 402.540222,246.500793 402.887024,246.334457 
	C402.875946,246.572891 402.864838,246.811340 402.622131,247.218689 
	C402.390533,247.387589 402.117279,247.111816 401.981964,246.972656 
z"/>
<path fill="#F1F3F5" opacity="1.000000" stroke="none" 
	d="
M226.915863,278.587524 
	C223.807709,281.196716 218.455536,280.488770 216.539322,277.264404 
	C214.942337,274.577271 213.423004,271.843994 211.607925,268.910156 
	C207.870605,262.375519 204.394653,256.061859 200.918701,249.748169 
	C200.604935,249.834579 200.291183,249.921005 199.977417,250.007416 
	C199.977417,258.730682 199.772751,267.461090 200.074860,276.173859 
	C200.201477,279.826050 198.655548,280.132996 195.737183,280.068634 
	C192.962601,280.007477 191.172256,280.031952 191.258499,276.221619 
	C191.529373,264.253693 191.297256,252.275116 191.422684,240.302383 
	C191.440536,238.598984 190.068893,235.519577 193.056473,235.441284 
	C196.164810,235.359818 199.999069,233.376541 202.377975,237.679047 
	C207.116669,246.249405 212.085953,254.692276 216.965134,263.184875 
	C217.363632,263.878479 217.801392,264.549530 219.124741,265.178619 
	C219.124741,256.688660 219.274170,248.194748 219.050934,239.710648 
	C218.962112,236.334366 219.770035,235.052078 223.398666,235.105911 
	C226.790771,235.156235 227.994125,235.958740 227.901917,239.557526 
	C227.650757,249.360886 227.544357,259.186249 227.959564,268.978333 
	C228.103226,272.366333 224.892197,275.014832 226.915863,278.587524 
z"/>
<path fill="#7F9FB6" opacity="1.000000" stroke="none" 
	d="
M208.712067,268.603088 
	C206.696304,269.623413 205.515366,272.089020 202.646454,271.622040 
	C202.324936,267.337860 202.324936,263.129700 202.324936,258.921539 
	C202.626038,258.816467 202.927124,258.711426 203.228226,258.606354 
	C205.050034,261.825806 206.871841,265.045258 208.712067,268.603088 
z"/>
<path fill="#254359" opacity="1.000000" stroke="none" 
	d="
M231.595276,252.041992 
	C234.454681,257.615967 236.782043,263.234955 231.395844,268.976624 
	C231.073502,268.675720 231.031128,268.162354 230.981522,267.262299 
	C231.181625,262.491608 231.402084,258.107056 230.267548,253.464844 
	C230.496674,252.803192 230.904388,252.446609 231.595276,252.041992 
z"/>
<path fill="#80A3BD" opacity="1.000000" stroke="none" 
	d="
M230.069275,253.611847 
	C232.196121,257.352692 234.616089,261.520996 231.042328,266.515350 
	C228.786102,262.740753 230.543121,258.321106 230.069275,253.611847 
z"/>
<path fill="#375A74" opacity="1.000000" stroke="none" 
	d="
M362.352936,209.830139 
	C363.634064,211.837646 362.525116,213.613464 361.510498,215.608307 
	C360.260834,213.453827 361.865448,211.815125 362.352936,209.830139 
z"/>
<path fill="#375A74" opacity="1.000000" stroke="none" 
	d="
M363.279388,207.458130 
	C363.146881,206.856964 362.993805,206.268509 363.704742,206.518967 
	C363.756378,206.537140 363.554779,207.274033 363.279388,207.458130 
z"/>
<path fill="#375A74" opacity="1.000000" stroke="none" 
	d="
M364.623596,204.470474 
	C364.632355,204.682159 364.545990,204.754333 364.459625,204.826477 
	C364.396271,204.733536 364.274475,204.632431 364.285980,204.549927 
	C364.297516,204.467270 364.442169,204.403183 364.623596,204.470474 
z"/>
<path fill="#4D6A90" opacity="1.000000" stroke="none" 
	d="
M128.988022,210.660675 
	C128.859390,212.197357 128.464569,213.301682 127.401634,214.305374 
	C126.682457,212.480377 127.374748,211.257889 128.252457,210.087082 
	C128.314697,210.004074 128.538437,209.959747 128.636032,210.005753 
	C128.768875,210.068359 128.852539,210.235291 128.988022,210.660675 
z"/>
<path fill="#80A5C4" opacity="1.000000" stroke="none" 
	d="
M184.429688,231.612503 
	C183.441086,234.365738 181.531281,234.062744 179.887283,233.247681 
	C178.500488,232.560120 178.950089,230.916199 179.141006,229.650177 
	C179.373047,228.111542 180.678238,228.226959 181.834244,228.139435 
	C184.164658,227.962952 184.636810,229.326813 184.429688,231.612503 
z"/>
<path fill="#375A74" opacity="1.000000" stroke="none" 
	d="
M393.341431,316.305847 
	C393.606903,316.263885 393.814514,316.431244 393.786652,316.493927 
	C393.584686,316.948334 393.359772,316.930023 393.341431,316.305847 
z"/>
<path fill="#375A74" opacity="1.000000" stroke="none" 
	d="
M392.293701,318.615662 
	C392.256073,318.315460 392.374939,318.203613 392.493835,318.091797 
	C392.598083,318.217285 392.789368,318.348206 392.782013,318.466797 
	C392.774689,318.585602 392.568970,318.692139 392.293701,318.615662 
z"/>
<path fill="#80A3BD" opacity="1.000000" stroke="none" 
	d="
M328.464508,298.042023 
	C328.053192,298.616791 327.584229,298.581177 327.594818,298.025421 
	C327.605347,297.472626 328.075531,297.450653 328.464508,298.042023 
z"/>
<path fill="#7F9FB6" opacity="1.000000" stroke="none" 
	d="
M105.581253,315.895142 
	C105.329193,315.402466 105.317017,315.087067 105.332962,314.533203 
	C106.204361,314.828278 107.163284,311.658691 107.994110,314.668457 
	C107.538345,315.876587 107.410698,317.474030 105.581253,315.895142 
z"/>
<path fill="#80A3BD" opacity="1.000000" stroke="none" 
	d="
M386.702637,326.945831 
	C386.594543,328.089630 385.534088,327.997314 384.326111,328.164368 
	C384.422089,326.953247 385.473328,327.077423 386.702637,326.945831 
z"/>
<path fill="#80A3BD" opacity="1.000000" stroke="none" 
	d="
M388.726288,325.945465 
	C388.577606,326.372437 388.102417,326.729889 387.313049,327.071350 
	C387.134460,326.268646 387.746521,326.047821 388.726288,325.945465 
z"/>
<path fill="#7F9FB6" opacity="1.000000" stroke="none" 
	d="
M331.860229,299.596985 
	C331.976501,299.743195 331.512299,299.803467 331.512299,299.803467 
	C331.512299,299.803467 331.172913,299.481049 331.157166,299.247559 
	C331.367767,299.124481 331.568604,299.270050 331.860229,299.596985 
z"/>
<path fill="#84AAC4" opacity="1.000000" stroke="none" 
	d="
M166.780609,169.152069 
	C166.860138,169.560593 166.706802,170.162674 166.261215,170.899872 
	C166.161896,170.471863 166.354828,169.908737 166.780609,169.152069 
z"/>
<path fill="#84AAC4" opacity="1.000000" stroke="none" 
	d="
M165.738098,171.106323 
	C165.858780,171.553818 165.699661,172.149948 165.256332,172.890991 
	C165.134171,172.442276 165.296234,171.848618 165.738098,171.106323 
z"/>
<path fill="#84AAC4" opacity="1.000000" stroke="none" 
	d="
M169.749207,166.008484 
	C169.844788,166.262512 169.656021,166.557358 169.216766,166.941513 
	C169.132462,166.703644 169.298660,166.376465 169.749207,166.008484 
z"/>
<path fill="#84AAC4" opacity="1.000000" stroke="none" 
	d="
M167.775421,168.050018 
	C167.859482,168.288437 167.692795,168.614059 167.244812,168.981583 
	C167.150589,168.728073 167.337631,168.432648 167.775421,168.050018 
z"/>
<path fill="#84AAC4" opacity="1.000000" stroke="none" 
	d="
M168.757523,167.020859 
	C168.852829,167.276825 168.676270,167.588425 168.231720,167.963593 
	C168.137695,167.710281 168.311676,167.393387 168.757523,167.020859 
z"/>
</svg>