<svg width="1024" height="1024" viewBox="0 0 1024 1024" fill="none" xmlns="http://www.w3.org/2000/svg">
<rect width="1024" height="1024" fill="#60A5FA"/>
<path d="M371.16 386V638H315L212.76 474.2V638H156.96V386H213.48L315.36 550.52V386H371.16ZM404.207 512C404.207 493.28 407.327 476.12 413.567 460.52C420.047 444.68 428.927 431 440.207 419.48C451.487 407.96 464.927 399.08 480.527 392.84C496.127 386.6 513.047 383.48 531.287 383.48C558.407 383.48 582.047 390.08 602.207 403.28C622.367 416.48 637.007 434.96 646.127 458.72L598.607 470.6C594.047 461 588.287 453.32 581.327 447.56C574.367 441.56 566.687 437.24 558.287 434.6C549.887 431.72 541.007 430.28 531.647 430.28C517.247 430.28 504.647 433.88 493.847 441.08C483.047 448.04 474.647 457.64 468.647 469.88C462.887 482.12 460.007 496.16 460.007 512C460.007 528.08 462.887 542.24 468.647 554.48C474.647 566.72 483.047 576.32 493.847 583.28C504.647 590.24 517.247 593.72 531.647 593.72C541.247 593.72 550.367 592.28 559.007 589.4C567.887 586.52 575.927 581.72 583.127 575C590.567 568.28 596.807 559.28 601.847 548L648.647 558.8C639.047 585.44 624.047 605.72 603.647 619.64C583.247 633.56 559.127 640.52 531.287 640.52C513.047 640.52 496.127 637.4 480.527 631.16C464.927 624.92 451.487 616.16 440.207 604.88C428.927 593.36 420.047 579.8 413.567 564.2C407.327 548.36 404.207 530.96 404.207 512ZM792.287 499.76C800.927 499.76 808.007 498.44 813.527 495.8C819.047 493.16 823.127 489.32 825.767 484.28C828.647 479 830.087 472.88 830.087 465.92C830.087 455.6 826.967 447.44 820.727 441.44C814.727 435.44 805.247 432.44 792.287 432.44H740.807V499.76H792.287ZM886.607 465.92C886.607 475.76 884.807 485.48 881.207 495.08C877.847 504.44 872.447 513.08 865.007 521C857.807 528.68 848.327 534.8 836.567 539.36C825.047 543.92 811.247 546.2 795.167 546.2H740.807V638H685.007V386H795.167C815.567 386 832.487 389.72 845.927 397.16C859.607 404.36 869.807 414.08 876.527 426.32C883.247 438.32 886.607 451.52 886.607 465.92Z" fill="#172554"/>
</svg>
